<svg width="18" height="18" viewBox="0 0 18 18" fill="none" xmlns="http://www.w3.org/2000/svg">
<g clip-path="url(#clip0_338_191)">
<path d="M2.15703 13.5867C2.19149 13.2766 2.20872 13.1215 2.25564 12.9766C2.29726 12.848 2.35607 12.7257 2.43048 12.6128C2.51434 12.4857 2.62466 12.3753 2.8453 12.1547L12.75 2.25C13.5784 1.42157 14.9216 1.42157 15.75 2.25C16.5784 3.07843 16.5784 4.42157 15.75 5.25L5.84529 15.1547C5.62466 15.3753 5.51434 15.4857 5.38717 15.5695C5.27434 15.6439 5.15197 15.7027 5.02338 15.7444C4.87845 15.7913 4.72339 15.8085 4.41328 15.843L1.875 16.125L2.15703 13.5867Z" stroke="#8D8A99" stroke-width="2" stroke-linecap="round" stroke-linejoin="round"/>
</g>
<defs>
<clipPath id="clip0_338_191">
<rect width="18" height="18" fill="white"/>
</clipPath>
</defs>
</svg>
