<svg width="22" height="22" viewBox="0 0 22 22" fill="none" xmlns="http://www.w3.org/2000/svg">
<path d="M11 14.6667C12.5188 14.6667 13.75 13.4354 13.75 11.9167C13.75 10.3979 12.5188 9.16665 11 9.16665C9.48122 9.16665 8.25 10.3979 8.25 11.9167C8.25 13.4354 9.48122 14.6667 11 14.6667Z" stroke="#C896FA" stroke-width="2" stroke-linecap="round" stroke-linejoin="round"/>
<path d="M2.75 9.68463C2.75 9.15814 2.75 8.89489 2.81786 8.65246C2.87797 8.43772 2.97675 8.23574 3.10936 8.05645C3.25906 7.85405 3.46685 7.69243 3.88244 7.3692L10.0996 2.53367C10.4216 2.28318 10.5826 2.15794 10.7604 2.1098C10.9173 2.06732 11.0827 2.06732 11.2396 2.1098C11.4174 2.15794 11.5784 2.28318 11.9004 2.53367L18.1176 7.3692C18.5331 7.69243 18.7409 7.85405 18.8906 8.05645C19.0232 8.23574 19.122 8.43772 19.1821 8.65246C19.25 8.89489 19.25 9.15814 19.25 9.68463V16.3167C19.25 17.3434 19.25 17.8568 19.0502 18.249C18.8744 18.5939 18.5939 18.8744 18.249 19.0502C17.8568 19.25 17.3434 19.25 16.3167 19.25H5.68333C4.65657 19.25 4.14319 19.25 3.75102 19.0502C3.40605 18.8744 3.12559 18.5939 2.94982 18.249C2.75 17.8568 2.75 17.3434 2.75 16.3167V9.68463Z" stroke="#C896FA" stroke-width="2" stroke-linecap="round" stroke-linejoin="round"/>
</svg>
