<svg width="24" height="24" viewBox="0 0 24 24" fill="none" xmlns="http://www.w3.org/2000/svg">
<path d="M10.4199 13C9.95059 12.7252 9.56147 12.3323 9.29128 11.8603C9.02109 11.3883 8.87925 10.8538 8.87988 10.31C8.88059 9.62531 9.10666 8.95988 9.52318 8.41645C9.9397 7.87302 10.5235 7.48181 11.1845 7.30319C11.8455 7.12458 12.5469 7.1685 13.1804 7.42818C13.814 7.68786 14.3444 8.14885 14.6899 8.74" stroke="#8D8A99" stroke-width="2" stroke-linecap="round" stroke-linejoin="round"/>
<path d="M5.99 17.81C4.15 15.3 2.81 12.09 3.63 8.49C5.28 1.23 14.57 0.0600004 18.68 4.98M20.38 8.5C21.53 13.58 18.37 17.88 15.6 20.54C14.6321 21.4735 13.3398 21.9952 11.995 21.9952C10.6502 21.9952 9.35793 21.4735 8.39 20.54M22 2L2 22" stroke="#8D8A99" stroke-width="2" stroke-linecap="round" stroke-linejoin="round"/>
</svg>
