<svg width="358" height="294" viewBox="0 0 358 294" fill="none" xmlns="http://www.w3.org/2000/svg">
<path d="M300.226 252.104L28.3433 293.288C22.23 294.254 16.7602 289.749 16.2775 283.636L0.0288913 38.78C-0.453741 32.0232 5.17699 26.3925 11.9338 26.8751L284.299 44.2499C289.448 44.5716 293.63 48.5935 294.113 53.7416L309.718 240.199C310.201 245.829 306.018 251.138 300.226 252.104Z" fill="#8E37ED"/>
<path d="M307.627 251.782L34.4569 293.127C28.3436 294.093 22.8738 289.588 22.3911 283.475L5.98164 37.493C5.49901 30.7362 11.1297 24.9446 18.0475 25.4272L291.539 42.802C296.687 43.1237 300.87 47.1456 301.353 52.4546L317.119 239.716C317.762 245.668 313.579 250.977 307.627 251.782Z" fill="#342C53"/>
<path d="M129.536 167.482L52.6361 171.665C50.223 171.826 48.1316 169.895 47.9707 167.482L43.4661 102.488C43.3052 99.9135 45.3967 97.6612 47.9707 97.6612L124.87 98.1438C127.283 98.1438 129.214 99.9135 129.375 102.327L133.879 162.656C134.04 165.23 132.11 167.321 129.536 167.482Z" fill="#C896FA"/>
<path d="M212.226 142.385L147.875 144.637C145.462 144.798 143.371 142.868 143.21 140.455L140.475 102.97C140.314 100.396 142.405 98.1439 144.979 98.1439L209.33 98.6265C211.583 98.6265 213.513 100.396 213.835 102.809L216.57 137.559C216.731 140.133 214.8 142.385 212.226 142.385Z" fill="#FFE699"/>
<path d="M285.104 139.972L230.888 141.903C228.475 142.063 226.384 140.133 226.223 137.72L223.488 103.775C223.327 101.201 225.418 98.9483 227.992 98.9483L282.208 99.27C284.46 99.27 286.391 101.04 286.713 103.453L289.287 135.146C289.608 137.559 287.678 139.811 285.104 139.972Z" fill="#EDE1FA"/>
<path d="M134.361 230.546L57.4619 238.912C54.8879 239.233 52.6356 237.303 52.4747 234.729L49.579 192.74C49.4181 190.327 51.3486 188.074 53.7617 187.913L130.822 182.765C133.235 182.604 135.488 184.374 135.648 186.948L138.544 225.72C138.544 228.133 136.775 230.224 134.361 230.546Z" stroke="#8E37ED" stroke-width="1.8" stroke-miterlimit="10" stroke-linecap="round" stroke-linejoin="round"/>
<path d="M219.465 228.937L155.275 236.499C152.701 236.82 150.449 234.89 150.288 232.316L145.14 162.978C144.979 160.403 146.91 158.312 149.323 158.151L213.674 155.095C216.087 154.934 218.178 156.864 218.339 159.277L223.487 224.111C223.648 226.524 221.879 228.616 219.465 228.937Z" fill="#EDE1FA"/>
<path d="M206.113 167.16L159.941 169.895C158.815 169.895 158.011 170.86 158.171 171.986L160.263 200.623C160.424 201.749 161.228 202.553 162.354 202.392L208.526 198.37C209.652 198.21 210.457 197.405 210.296 196.279L208.204 168.93C208.043 167.965 207.078 167.16 206.113 167.16Z" fill="#C896FA"/>
<path d="M291.539 213.01L237.323 218.963C234.749 219.284 232.497 217.354 232.336 214.78L227.992 158.955C227.831 156.381 229.762 154.29 232.175 154.129L286.391 151.555C288.804 151.394 290.895 153.325 291.056 155.738L295.4 208.184C295.721 210.597 293.952 212.689 291.539 213.01Z" fill="#FFE699"/>
<path d="M95.1078 204.001L96.0731 215.906" stroke="#8E37ED" stroke-width="1.8" stroke-miterlimit="10" stroke-linecap="round" stroke-linejoin="round"/>
<path d="M89.9594 210.436L101.221 209.471" stroke="#8E37ED" stroke-width="1.8" stroke-miterlimit="10" stroke-linecap="round" stroke-linejoin="round"/>
<path d="M172.168 217.193C171.846 213.976 169.433 211.402 166.537 211.723C163.641 212.045 161.389 214.941 161.711 218.319C162.033 221.698 164.607 224.111 167.503 223.789C170.237 223.306 172.329 220.411 172.168 217.193Z" fill="#342C53"/>
<path d="M181.498 216.228L211.582 213.171" stroke="#342C53" stroke-width="1.8" stroke-miterlimit="10" stroke-linecap="round" stroke-linejoin="round"/>
<path d="M248.424 169.252C248.102 166.195 246.011 163.943 243.437 163.943C240.863 164.104 239.093 166.678 239.254 169.734C239.576 172.791 241.667 175.204 244.241 175.043C246.976 174.882 248.746 172.308 248.424 169.252Z" fill="#C896FA"/>
<path d="M256.628 168.769L282.53 167.16" stroke="#342C53" stroke-width="1.8" stroke-miterlimit="10" stroke-linecap="round" stroke-linejoin="round"/>
<path d="M249.872 186.466C249.55 183.409 247.459 181.157 244.885 181.318C242.311 181.478 240.541 184.213 240.702 187.27C241.024 190.327 243.276 192.74 245.689 192.418C248.263 192.096 250.194 189.522 249.872 186.466Z" fill="#C896FA"/>
<path d="M257.916 185.822L283.978 183.731" stroke="#342C53" stroke-width="1.8" stroke-miterlimit="10" stroke-linecap="round" stroke-linejoin="round"/>
<path d="M251.32 203.679C250.998 200.623 248.907 198.37 246.332 198.531C243.758 198.692 241.989 201.427 242.15 204.484C242.471 207.54 244.724 209.793 247.137 209.632C249.711 209.31 251.481 206.736 251.32 203.679Z" fill="#C896FA"/>
<path d="M259.364 202.875L285.265 200.301" stroke="#342C53" stroke-width="1.8" stroke-miterlimit="10" stroke-linecap="round" stroke-linejoin="round"/>
<path d="M70.3325 123.723L59.8754 123.884C58.9102 123.884 58.1058 123.08 57.9449 122.114L57.1405 111.175C57.1405 110.049 57.9449 109.244 59.0711 109.244H69.5281C70.4934 109.244 71.2977 110.049 71.4586 111.014L72.263 121.793C72.1021 122.758 71.2977 123.723 70.3325 123.723Z" fill="#FFE699"/>
<path d="M81.5941 109.244L117.792 109.083" stroke="#342C53" stroke-width="1.8" stroke-miterlimit="10" stroke-linecap="round" stroke-linejoin="round"/>
<path d="M82.2375 118.575L118.435 118.253" stroke="#342C53" stroke-width="1.8" stroke-miterlimit="10" stroke-linecap="round" stroke-linejoin="round"/>
<path d="M243.919 121.149L235.714 121.31C235.231 121.31 234.749 120.828 234.588 120.345L233.784 109.888C233.784 109.244 234.266 108.762 234.91 108.762H243.114C243.597 108.762 244.08 109.244 244.241 109.727L245.045 120.023C245.045 120.506 244.562 121.149 243.919 121.149Z" fill="#342C53"/>
<path d="M251.641 108.601H278.508" stroke="#342C53" stroke-width="1.8" stroke-miterlimit="10" stroke-linecap="round" stroke-linejoin="round"/>
<path d="M252.446 116.806L279.151 116.484" stroke="#342C53" stroke-width="1.8" stroke-miterlimit="10" stroke-linecap="round" stroke-linejoin="round"/>
<path d="M235.392 130.158L280.116 129.032" stroke="#342C53" stroke-width="1.8" stroke-miterlimit="10" stroke-linecap="round" stroke-linejoin="round"/>
<path d="M72.1024 148.66L61.6453 148.981C60.6801 148.981 59.7148 148.177 59.7148 147.212L58.9104 136.272C58.9104 135.146 59.7148 134.341 60.6801 134.341L71.1371 134.02C72.1024 134.02 72.9067 134.824 73.0676 135.789L73.872 146.568C73.872 147.694 73.0676 148.66 72.1024 148.66Z" fill="#FFE699"/>
<path d="M83.3641 133.859L119.562 132.893" stroke="#342C53" stroke-width="1.8" stroke-miterlimit="10" stroke-linecap="round" stroke-linejoin="round"/>
<path d="M84.0074 143.351L120.205 142.224" stroke="#342C53" stroke-width="1.8" stroke-miterlimit="10" stroke-linecap="round" stroke-linejoin="round"/>
<path d="M98.486 70.7947L44.2703 69.1859C42.5006 69.1859 41.0527 67.738 40.8918 65.9684L40.2483 57.4419C40.0875 55.3505 41.8571 53.5808 43.7877 53.7417L98.0034 55.994C99.773 55.994 101.221 57.4419 101.382 59.2115L102.025 67.0945C102.186 69.025 100.577 70.7947 98.486 70.7947Z" fill="#C896FA"/>
<path d="M153.345 108.923L204.504 108.762" stroke="#342C53" stroke-width="1.8" stroke-miterlimit="10" stroke-linecap="round" stroke-linejoin="round"/>
<path d="M153.988 117.932L205.147 117.288" stroke="#342C53" stroke-width="1.8" stroke-miterlimit="10" stroke-linecap="round" stroke-linejoin="round"/>
<path d="M154.954 132.089L182.464 131.445" stroke="#342C53" stroke-width="1.8" stroke-miterlimit="10" stroke-linecap="round" stroke-linejoin="round"/>
<path d="M283.495 69.9901C283.334 67.577 281.565 65.4856 279.473 65.3247C277.543 65.1638 275.934 67.2552 276.256 69.6684C276.416 72.2424 278.186 74.3338 280.277 74.3338C282.208 74.4947 283.656 72.4033 283.495 69.9901Z" fill="#8E37ED"/>
<path d="M269.177 69.5076C269.016 66.9336 267.086 64.8422 265.155 64.8422C263.064 64.6813 261.616 66.7727 261.777 69.3467C261.938 71.9208 263.868 74.0122 265.96 74.0122C267.89 74.0122 269.338 71.9208 269.177 69.5076Z" fill="#8E37ED"/>
<path d="M254.376 68.8641C254.215 66.2901 252.285 64.1987 250.193 64.0378C248.102 63.8769 246.493 65.9683 246.654 68.5423C246.815 71.1164 248.745 73.2078 250.837 73.3687C253.089 73.5295 254.537 71.4381 254.376 68.8641Z" fill="#8E37ED"/>
<path d="M348.811 91.0654L277.381 89.7784C274.486 89.7784 272.072 87.5261 271.911 84.6303L265.476 5.96124C265.316 3.22632 267.568 1.13493 270.142 1.2958L341.893 8.85704C344.628 9.1788 346.72 11.2702 346.88 14.0051L353.155 86.2391C353.316 88.974 351.385 91.0654 348.811 91.0654Z" fill="#FFA06D"/>
<path d="M352.672 89.7784L281.242 88.4913C278.346 88.4913 275.933 86.2391 275.772 83.3433L269.337 4.67413C269.176 1.93921 271.429 -0.152184 274.003 0.0086932L345.754 7.56993C348.489 7.89169 350.58 9.98309 350.741 12.718L357.015 84.952C357.176 87.6869 355.085 89.7784 352.672 89.7784Z" fill="#FFE699"/>
<path d="M300.548 14.6485L338.354 18.1878" stroke="#8E37ED" stroke-width="1.8" stroke-miterlimit="10" stroke-linecap="round" stroke-linejoin="round"/>
<path d="M301.191 22.3707L338.997 25.5883" stroke="#8E37ED" stroke-width="1.8" stroke-miterlimit="10" stroke-linecap="round" stroke-linejoin="round"/>
<path d="M302.639 40.0672L340.606 42.6413" stroke="#8E37ED" stroke-width="1.8" stroke-miterlimit="10" stroke-linecap="round" stroke-linejoin="round"/>
<path d="M303.282 47.6284L341.089 49.8807" stroke="#8E37ED" stroke-width="1.8" stroke-miterlimit="10" stroke-linecap="round" stroke-linejoin="round"/>
<path d="M304.892 65.4857L342.698 67.0945" stroke="#8E37ED" stroke-width="1.8" stroke-miterlimit="10" stroke-linecap="round" stroke-linejoin="round"/>
<path d="M305.535 73.0469L343.341 74.3339" stroke="#8E37ED" stroke-width="1.8" stroke-miterlimit="10" stroke-linecap="round" stroke-linejoin="round"/>
<path d="M287.517 18.9922L289.447 21.4054L292.182 17.7052" stroke="#C896FA" stroke-width="1.8" stroke-miterlimit="10" stroke-linecap="round" stroke-linejoin="round"/>
<path d="M289.608 44.7326L291.538 46.9849L294.434 43.2847" stroke="#C896FA" stroke-width="1.8" stroke-miterlimit="10" stroke-linecap="round" stroke-linejoin="round"/>
<path d="M291.7 69.9904L293.791 72.2426L296.526 68.3816" stroke="#C896FA" stroke-width="1.8" stroke-miterlimit="10" stroke-linecap="round" stroke-linejoin="round"/>
</svg>
