<svg width="207" height="39" viewBox="0 0 207 39" fill="none" xmlns="http://www.w3.org/2000/svg">
<g clip-path="url(#clip0_42_880)">
<path d="M15.7147 4.18944C15.6636 4.18944 15.649 4.31682 15.6636 4.33805C15.6709 4.35221 15.6928 4.35221 15.722 4.33805C15.7658 4.30267 15.7804 4.28144 15.8169 4.24605C15.868 4.1399 15.7731 3.99837 15.722 3.91345C15.722 3.91345 15.6563 3.80022 15.6563 3.67284C15.6563 3.61622 15.4518 3.41807 15.3131 3.5313C15.2327 3.59499 15.1524 3.67991 15.2619 3.67991C15.3423 3.67991 15.3569 3.67991 15.3569 3.68699C15.3715 3.72237 15.2911 3.7153 15.2911 3.75068C15.3496 3.82145 15.3715 3.84976 15.4299 3.92052C15.4299 3.92052 15.4372 3.9276 15.4445 3.93468C15.481 3.96298 15.4956 3.94883 15.5175 3.91345C15.5394 3.88514 15.6344 3.94883 15.6344 3.94883C15.6344 3.94883 15.6344 3.97006 15.6198 3.99129C15.5905 4.02667 15.5832 4.04083 15.6271 4.03375C15.6636 4.03375 15.6928 3.99837 15.722 4.0196C15.7512 4.04083 15.7293 4.07621 15.7439 4.09744C15.7439 4.1116 15.7658 4.1116 15.7731 4.12575V4.13283C15.7731 4.14698 15.7366 4.18236 15.7147 4.18944Z" fill="#5F259F"/>
<path d="M12.4651 2.04519C12.4651 2.04519 12.4651 2.04519 12.4651 2.05227C12.4651 2.05227 12.4651 2.0735 12.487 2.0735C12.5162 2.08057 12.5673 2.08057 12.7645 2.03811C12.8156 2.03104 12.8667 2.03811 12.9178 2.01688C12.9471 2.00981 12.9398 1.97442 12.9617 1.96027C13.0103 1.93668 13.059 1.92489 13.1077 1.92489C13.1077 1.92489 13.1807 1.92489 13.1734 1.89658C13.1734 1.87299 13.1953 1.8494 13.2391 1.82581C13.2245 1.81873 13.2026 1.81166 13.1953 1.81166C13.0785 1.81873 13.042 1.82581 13.0347 1.76212C13.0347 1.76212 13.0347 1.75976 13.0347 1.75504C13.0347 1.75504 13.0201 1.75504 12.9982 1.76212C12.969 1.77627 12.969 1.76212 12.969 1.75504C12.969 1.75504 12.9665 1.75033 12.9617 1.74089C12.9617 1.74089 12.9324 1.74089 12.9178 1.73381C12.8886 1.72674 12.874 1.69843 12.8521 1.69135C12.8521 1.69135 12.8473 1.68663 12.8375 1.6772C12.8375 1.6772 12.8375 1.65597 12.8375 1.64182H12.8302C12.8302 1.64182 12.7499 1.6772 12.8594 1.76212C12.874 1.77627 12.8594 1.79043 12.8594 1.80458C12.8594 1.81873 12.8813 1.82581 12.8813 1.83996C12.8813 1.84704 12.8813 1.85412 12.8813 1.86119C12.8813 1.86119 12.801 1.89658 12.7864 1.89658C12.7718 1.89658 12.7499 1.89658 12.7353 1.89658C12.7207 1.89658 12.5965 1.96735 12.5673 2.00273C12.56 2.00981 12.56 2.01688 12.5454 2.00273C12.5162 1.99565 12.5162 1.98858 12.5016 1.99565C12.487 1.99565 12.487 1.9815 12.4724 1.9815C12.4724 1.9815 12.4651 1.9815 12.4578 1.9815C12.4359 1.99565 12.4578 2.01688 12.4578 2.03104L12.4651 2.04519Z" fill="#5F259F"/>
<path d="M22.316 26.8987C22.9246 26.7902 22.9246 26.7902 22.316 26.8987V26.8987Z" fill="#5F259F"/>
<path d="M10.2744 7.39521C10.2744 7.39521 10.2598 7.44475 10.2671 7.46598C10.2671 7.46598 10.2744 7.48721 10.2744 7.49429C10.2964 7.50137 10.311 7.50844 10.3256 7.5226C10.3256 7.5226 10.3329 7.53675 10.3402 7.54383C10.3402 7.54383 10.3426 7.54383 10.3475 7.54383C10.3986 7.52967 10.4278 7.48014 10.4643 7.45183H10.4716C10.4789 7.45183 10.5008 7.4306 10.457 7.36691C10.4351 7.3386 10.4716 7.31029 10.4789 7.28199C10.4643 7.27491 10.4205 7.31029 10.4059 7.35275C10.3986 7.37398 10.384 7.36691 10.3767 7.35983C10.3621 7.35275 10.3694 7.33152 10.3694 7.32445C10.3694 7.29614 10.3475 7.28199 10.3475 7.26076C10.3402 7.26076 10.3475 7.2466 10.3475 7.23953C10.3475 7.23953 10.3475 7.23245 10.3329 7.22537H10.3256C10.3256 7.22537 10.2891 7.22537 10.2818 7.23953C10.2525 7.26076 10.2452 7.29614 10.2452 7.31029C10.2452 7.35275 10.2452 7.35983 10.2671 7.37398C10.2744 7.38106 10.2744 7.38106 10.2744 7.40229" fill="#5F259F"/>
<path d="M8.14213 4.00544C8.14213 4.00544 8.14943 3.98421 8.16404 3.97006C8.19325 3.94175 8.19325 3.93468 8.19325 3.9276C8.17864 3.90637 8.20785 3.84268 8.20785 3.8356C8.20785 3.8356 8.28088 3.72945 8.31739 3.72945C8.32469 3.72945 8.33199 3.73653 8.3466 3.7436C8.3612 3.7436 8.3685 3.7436 8.38311 3.7436C8.38311 3.7436 8.37581 3.77191 8.38311 3.77899C8.41962 3.76483 8.45613 3.7436 8.49264 3.7436C8.43423 3.8073 8.3612 3.85683 8.31009 3.92052C8.30278 3.9276 8.29548 3.94175 8.28088 3.95591C8.25897 3.99129 8.27357 4.02667 8.24436 4.05498C8.22246 4.07621 8.19325 4.09744 8.17864 4.13283C8.21759 4.12811 8.23706 4.12811 8.23706 4.13283C8.23706 4.13283 8.20055 4.18236 8.19325 4.20359C8.19325 4.22482 8.19325 4.24605 8.18594 4.26728C8.18594 4.27436 8.17864 4.28851 8.16404 4.30267C8.12753 4.35221 8.12022 4.33097 8.12022 4.15406C8.13483 4.09744 8.14213 4.06206 8.14943 4.00544M26.3031 32.0223C26.3031 32.0223 25.865 31.4986 25.1639 31.1448C24.1416 30.6282 24.127 30.6211 24.1416 30.43C24.1197 30.423 24.0905 30.4017 24.0759 30.3947C24.0759 30.3947 24.0759 30.3947 24.0248 30.3664C23.9079 30.3145 23.8179 30.2484 23.7546 30.1682C23.7546 30.1682 23.7692 30.1187 23.7765 30.0904C23.7765 30.0621 23.7765 30.055 23.7765 30.0337C23.7765 30.0337 23.4844 29.503 23.3968 29.2765C23.1704 28.6538 23.1704 28.6538 22.9805 28.5759C22.8856 28.5193 22.7761 28.4486 22.6446 28.2292C22.6008 28.1513 22.6665 28.0806 22.6592 28.0098C22.6154 27.9956 22.5497 28.0381 22.5132 27.9956C22.4475 27.932 22.4475 27.8329 22.3744 27.7763C22.3306 27.7338 22.2576 27.7833 22.2138 27.7338C22.1992 27.7126 22.17 27.656 22.1554 27.5427C22.1481 27.4437 22.243 27.3941 22.2795 27.3234C22.316 27.2455 22.2357 27.1818 22.2576 27.104C22.2722 27.0332 22.2941 26.9695 22.316 26.9058C22.3379 26.8492 22.3525 26.7997 22.3744 26.7431C22.4182 26.6015 22.4036 26.4529 22.4913 26.3255C22.4548 26.2618 22.4548 26.2689 22.0312 26.1486C21.9363 26.1203 21.8268 26.1698 21.7391 26.1132C21.6588 26.0566 21.6953 25.9575 21.6515 25.8938C21.5858 25.816 21.6004 25.7594 21.6004 25.7594C21.615 25.7028 21.6515 25.6957 21.7245 25.7028C21.8048 25.7028 21.8268 25.7028 21.9655 25.5329C22.0312 25.4551 21.9801 25.3489 22.0312 25.2711C22.1335 25.1154 22.2649 24.9739 22.3525 24.804C22.3671 24.7828 22.3817 24.7474 22.3963 24.7191C22.4767 24.5563 22.5716 24.3936 22.6154 24.3299C22.7249 24.1813 22.9513 24.1813 23.0682 24.0327C23.0682 24.0327 23.0682 24.0185 23.0755 24.0185C23.0901 23.969 23.0901 23.8982 23.0755 23.8557C23.0755 23.8487 23.0755 23.8416 23.0901 23.7708C23.258 23.5373 23.5209 23.417 23.7181 23.2188C24.0905 22.8438 23.9225 21.4213 23.9225 21.4001C23.8422 21.11 23.1558 20.4094 22.9878 20.4023H22.9732C22.8783 20.4164 22.7761 20.3952 22.6811 20.4377C22.6811 20.466 22.6811 20.4943 22.6884 20.5155C22.6665 20.5297 22.6373 20.5438 22.6154 20.558H22.5935C22.5059 20.6193 22.4134 20.6712 22.316 20.7137C22.316 20.7561 22.3744 20.8717 22.4913 21.0604C22.1042 21.393 21.8194 20.7844 21.4543 20.7137H21.4178C21.2815 20.7608 21.1841 20.7797 21.1257 20.7703C20.8701 20.2961 20.1472 19.8786 20.0669 19.8645C20.0596 19.8857 20.045 19.9069 20.0377 19.9281C20.0669 19.9635 20.0961 20.0201 20.0961 20.0697C20.0742 20.0697 20.0377 20.0697 20.0158 20.0697C19.821 19.8951 19.7529 19.7441 19.8113 19.6168C19.7164 19.4823 19.7164 19.4752 19.7091 19.3903C19.7091 19.3903 18.8985 18.6897 18.7671 18.5836C18.7817 18.5623 18.8036 18.5411 18.8182 18.5269H18.862C18.862 18.4703 18.862 18.4066 18.862 18.35C18.9058 18.3146 18.9569 18.258 18.9861 18.2085C18.8839 18.2863 18.7525 18.2793 18.6356 18.3217C18.621 18.3713 18.5407 18.5199 16.9415 18.074C16.7516 18.0174 16.4595 17.7556 16.35 17.6353C15.6855 16.9064 15.4299 16.9913 14.9406 17.1753C14.6704 17.2744 14.6266 17.2602 13.4802 16.8993H13.4217C13.2392 16.9134 10.9827 16.0713 10.8659 15.2575C11.0777 15.1018 11.0485 14.8541 11.0193 14.7763C10.8197 14.2196 10.642 13.8516 10.4862 13.6723C10.2671 13.4246 9.92391 13.3185 9.77786 12.9929C9.85575 12.8231 9.8947 12.724 9.8947 12.6957C9.63181 12.6249 9.60991 12.54 9.50037 12.172C9.50037 12.172 9.26669 11.9739 9.05492 11.4502C8.94539 11.1813 8.9819 11.0893 9.01841 11.0185C9.03302 11.0044 9.04032 10.9902 9.04762 10.976C9.04762 10.9548 9.04762 10.9194 9.04762 10.8982C8.95269 10.9053 8.90888 10.8204 8.83586 10.7921C8.81395 10.8062 8.79204 10.8204 8.77013 10.8345C8.74092 10.8204 8.64599 10.7779 8.52185 10.9619C8.52185 10.9902 8.52185 11.0185 8.52916 11.0468V11.061C8.53646 11.1388 8.47804 11.2308 8.49995 11.3087C8.50725 11.3582 8.56567 11.3511 8.58757 11.3865C8.63139 11.5422 8.6533 11.62 8.69711 11.7757C8.69711 11.7757 8.74823 11.9385 8.78474 11.9739H8.79204C8.83585 11.9739 8.85046 11.9951 8.85776 12.0093C8.87967 12.0871 8.79204 12.1508 8.81395 12.2286C8.82855 12.3206 8.92348 12.3348 8.95269 12.4197C9.00381 12.5188 9.02572 12.5683 9.07683 12.6603C9.12795 12.7382 9.16446 12.8089 9.13525 12.9929C9.12795 13.0212 9.13525 13.0354 9.15716 13.0566C9.21558 13.184 9.24479 13.2477 9.31051 13.3751C9.32511 13.4317 9.2813 13.4741 9.26669 13.5166C9.23018 13.7289 9.38353 13.6511 9.41274 13.6298C9.50037 13.5803 9.61721 14.0049 9.60991 14.012C9.588 14.0827 9.52958 14.1252 9.48576 14.1818C9.46386 14.2101 9.43465 14.2243 9.42735 14.203C9.37623 14.1323 9.40544 14.0332 9.36893 13.9483C9.34702 13.8917 9.26669 13.8987 9.23748 13.8421C9.20097 13.7714 9.17907 13.7289 9.11334 13.6723C8.90158 13.4741 8.87967 13.4741 8.85776 13.4671C8.83585 13.4671 8.82125 13.4529 8.81395 13.4529C8.79204 13.4105 8.79934 13.3821 8.85046 13.2831C8.89427 13.2052 8.90158 13.1769 8.89427 13.0849C8.89427 12.9009 8.84316 12.8726 8.77013 12.8231C8.71171 12.7877 8.68981 12.7665 8.6679 12.724C8.6679 12.724 8.6679 12.7099 8.6606 12.6957C8.63139 12.6108 8.53646 12.6391 8.48534 12.5966C8.47804 12.5966 8.47804 12.5683 8.47804 12.5542C8.47804 12.5259 8.45613 12.5329 8.41962 12.54C8.33929 12.5542 8.28818 12.4622 8.28818 12.4622C8.28818 12.4622 8.25897 12.356 8.24436 12.2923C8.28088 12.2499 8.32469 12.2923 8.3539 12.2569C8.38311 12.2286 8.3685 12.1791 8.39771 12.1508C8.39771 12.1508 8.41232 12.1508 8.41232 12.1437C8.44883 12.1225 8.49995 12.0093 8.49995 11.9739C8.49995 11.9668 8.3539 11.6483 8.20785 11.5988C8.14213 11.5705 8.08371 11.5493 8.12753 11.3794C8.15674 11.2662 8.14213 11.1742 8.11292 11.0539C8.10562 11.0397 8.10562 11.0256 8.10562 11.0044C7.88655 10.0702 7.88655 10.0773 7.86464 10.0702C7.85734 10.0348 7.82813 9.9853 7.80622 9.95699H7.78432C7.78432 9.95699 7.69669 9.957 7.66748 9.93576C7.66748 9.90746 7.68208 9.87915 7.68208 9.85084C7.60176 9.82254 7.50683 9.85084 7.4265 9.84377C7.4192 9.82961 7.40459 9.80838 7.39729 9.78715C7.47762 9.51116 7.20743 9.3767 7.31696 9.09363C7.36078 9.08655 7.41189 9.06532 7.44841 9.05117C7.40946 9.00399 7.36078 8.96389 7.30236 8.93087C7.28775 8.82471 7.36078 8.69733 7.29506 8.59826C7.29506 8.5841 7.29506 8.5841 7.21473 8.3718C7.20743 8.35765 7.20013 8.35057 7.20743 8.32934C7.22934 8.22319 7.30966 8.13827 7.33157 8.03919C7.33157 8.01796 7.33157 8.01796 7.31696 7.98258C7.28776 7.94012 7.24394 7.89058 7.35348 7.74197C7.57255 7.43059 7.57985 7.43059 7.63827 7.09091C7.64557 7.0343 7.66748 7.00599 7.68208 6.99183C7.97418 6.61677 8.17134 6.28416 8.28088 6.07186C8.28088 6.07186 8.52185 5.55525 8.50725 5.46326C8.50725 5.4491 8.50725 5.42787 8.52185 5.39956C8.53646 5.36418 8.55106 5.3571 8.56567 5.35003C8.63139 5.33587 8.6679 5.37833 8.72632 5.37126H8.77013H8.79934C8.82125 5.37126 8.84316 5.38541 8.86506 5.39249C8.86506 5.42787 8.86506 5.4208 8.86506 5.60479C8.86506 5.60479 9.12795 5.24388 9.06223 5.08819C9.04762 5.08819 9.01841 5.08111 9.00381 5.07403C9.01111 5.05988 9.01841 5.03157 9.02572 5.01034H8.96C8.96 5.01034 8.95999 5.01034 8.93809 5.00327C8.93809 4.97496 8.93809 4.94665 8.93809 4.91835C8.91375 4.9325 8.8748 4.94429 8.82125 4.95373C8.82125 4.95373 8.82125 4.98204 8.82125 4.99619C8.85533 5.01506 8.87723 5.06932 8.88697 5.15896C8.88697 5.15896 8.89427 5.18726 8.88697 5.20849C8.88697 5.22265 8.87237 5.25803 8.85776 5.26511C8.85776 5.26511 8.85776 5.26511 8.83586 5.26511C8.82125 5.26511 8.82125 5.26511 8.80665 5.27218C8.43423 5.3288 8.48534 4.95373 8.31009 4.81219C8.33443 4.77445 8.33686 4.72491 8.31739 4.66358C8.29791 4.60225 8.33929 4.5763 8.44153 4.58574C8.44153 4.58574 8.46344 4.59281 8.47074 4.59989C8.47074 4.62112 8.47804 4.65651 8.49995 4.66358H8.51455C8.5681 4.66358 8.60705 4.65651 8.63139 4.64235C8.63139 4.64235 8.63139 4.61405 8.63869 4.59989C8.63139 4.59989 8.60948 4.59989 8.60218 4.59281H8.57297C8.57297 4.59281 8.55106 4.57866 8.55836 4.42297H8.54376C8.54376 4.42297 8.54376 4.39467 8.60948 4.16113C8.60218 4.16113 8.58757 4.16113 8.57297 4.16113C8.60948 3.77191 8.60948 3.77191 8.6533 3.73653C8.6679 3.73653 8.6825 3.73653 8.68981 3.73653C8.75553 3.64453 8.76283 3.63038 8.77744 3.58792C8.77744 3.58084 8.76283 3.56669 8.74823 3.55961C8.76283 3.5313 8.78474 3.49592 8.79934 3.47469C8.79934 3.46761 8.79204 3.45346 8.78474 3.44638C8.6825 3.44638 8.62409 3.55961 8.52916 3.58084C8.52916 3.58084 8.52916 3.55961 8.54376 3.5313C3.37369 7.07676 0 12.9009 0 19.4965C0 30.2673 9.01111 39 20.118 39C20.8994 39 21.6734 38.9575 22.4328 38.8726C22.8345 38.6179 22.9513 38.4975 22.9805 38.4551C22.8832 38.4551 22.8174 38.4456 22.7834 38.4268C22.8199 38.356 22.8199 38.3419 22.944 38.3135C22.9294 38.2569 23.0535 37.9668 23.3675 37.8677C23.4333 37.7191 23.3529 37.5634 23.4844 37.4148C23.6962 37.1671 24.0613 37.0256 24.3096 36.785C24.7185 36.3958 25.0033 35.3767 25.0033 35.3767C25.0033 35.3555 25.0033 35.3272 25.0106 35.3059C25.4268 35.0653 25.1785 34.5558 25.6532 34.3293C25.8504 33.5934 26.4418 32.8715 26.2885 32.0294" fill="#5F259F"/>
<path d="M13.2246 2.39902C13.1807 2.42732 13.1588 2.44148 13.1077 2.46978C13.1004 2.46978 13.0931 2.49101 13.1515 2.48394C13.1661 2.48394 13.1953 2.48394 13.2172 2.44855C13.2976 2.37071 13.4582 2.34948 13.5897 2.3424C13.6627 2.3424 13.7138 2.33533 13.8014 2.30702C13.8233 2.30702 13.8453 2.30702 13.8599 2.29994C13.8599 2.29287 13.8599 2.29287 13.8233 2.28579C13.8233 2.28579 13.6773 2.27871 13.5897 2.3141C13.5751 2.3141 13.5678 2.3141 13.5678 2.28579C13.5678 2.25748 13.4874 2.27164 13.4874 2.27164C13.4655 2.27164 13.4363 2.29287 13.429 2.29994C13.3998 2.3141 13.3852 2.32825 13.3268 2.35656C13.2781 2.38015 13.244 2.39194 13.2246 2.39194C13.2246 2.39194 13.2026 2.39194 13.1953 2.39902" fill="#5F259F"/>
<path d="M37.4538 28.9864H35.2193C35.139 29.2624 35.0586 29.5454 34.9491 29.9134C34.9199 30.055 34.3795 31.1519 34.3722 31.1589C34.343 31.2014 34.2992 31.2439 34.27 31.2722C34.1385 31.3925 34.0655 31.5977 33.8903 31.6614C33.5032 31.7888 33.4959 31.8029 33.4448 31.9445C33.4302 31.9586 32.9848 32.1922 32.5393 32.7017C32.1012 33.2041 31.8164 33.7986 31.3928 34.301C30.0638 35.8579 29.7863 35.9075 28.8954 36.1976C28.7932 36.1457 28.7007 36.1315 28.618 36.1551C28.618 36.1551 28.5449 36.1127 28.5157 36.0844C28.4938 36.1198 28.4573 36.1622 28.4354 36.2047C28.4427 36.2188 28.4573 36.2471 28.4646 36.2613C28.5741 36.2754 28.5741 36.2754 28.4865 36.5585C28.523 36.5656 28.5668 36.5939 28.6033 36.608C28.4792 36.8274 27.5226 37.4714 26.7632 37.4077C26.566 37.521 26.6244 37.7333 26.4053 37.8394C26.1498 37.9668 25.8869 37.804 25.6313 37.9456C25.6313 37.9456 25.551 38.0234 25.5291 38.1649C25.5972 38.1697 25.6873 38.1626 25.7992 38.1437H25.8284C25.8284 38.1437 25.8065 38.1791 25.7554 38.2215C30.8817 36.7779 35.1536 33.4023 37.7021 28.9722C37.6218 28.9722 37.5414 28.9864 37.4611 28.9864" fill="#5F259F"/>
<path d="M21.3302 6.23463C21.6223 6.17802 21.9509 6.27709 22.2138 6.10725C22.1991 6.0412 22.1456 5.98459 22.0531 5.93741C21.9509 5.95864 21.9217 5.96572 21.8924 6.03648C21.6588 5.94448 21.2717 6.08602 21.2717 6.08602C21.2498 6.08602 21.2133 6.08602 21.2133 6.10017C21.1744 6.11904 21.1281 6.1733 21.0746 6.26294C21.1866 6.26294 21.2644 6.2535 21.3083 6.23463C21.3083 6.23463 21.3229 6.23463 21.3375 6.22756" fill="#5F259F"/>
<path d="M17.9784 4.81219C17.9784 4.81219 17.9711 4.81219 17.9638 4.81219C17.9492 4.81219 17.9273 4.81219 17.8981 4.82635C17.8689 4.8405 17.8689 4.84758 17.8689 4.85466C17.8689 4.89004 17.752 4.94665 17.7155 4.96081C17.6206 5.00327 17.5111 5.00327 17.4234 5.04573C17.4234 5.04573 16.9634 5.28634 16.9634 5.31464C17.0364 5.34295 17.124 5.31464 17.1605 5.29341C17.2117 5.27218 17.3504 5.22972 17.3796 5.25803C17.3796 5.27926 17.3577 5.30049 17.3504 5.32172C17.4891 5.4208 17.6133 5.27926 17.7447 5.27218C17.8616 5.27218 17.8762 5.25803 17.92 5.2368C18.0149 5.17311 18.2121 5.03865 18.3143 5.09526C18.1902 5.16603 18.1318 5.20142 18.1391 5.25095C18.2048 5.26511 18.2705 5.22972 18.3362 5.25095C18.4019 5.27218 18.4239 5.3571 18.4969 5.36418C18.4969 5.36418 18.6064 5.37126 18.7525 5.33587C18.7525 5.33587 18.8985 5.30757 18.9131 5.30049C18.9569 5.29341 19.008 5.31464 19.0519 5.31464C19.103 5.31464 19.1395 5.26511 19.1906 5.25803H19.2052C19.2563 5.25803 19.2271 5.31464 19.249 5.33587C19.249 5.33587 19.417 5.41372 19.4243 5.22972C19.4243 5.22972 19.3439 5.22972 19.3293 5.19434C19.3001 5.15896 19.3586 5.09526 19.2928 5.07403C19.2393 5.05516 19.232 5.01506 19.2709 4.95373C19.2709 4.95373 19.2709 4.94665 19.2563 4.94665C19.2563 4.94665 19.2563 4.94665 19.2417 4.94665C19.1614 4.91127 19.0884 4.96081 19.008 4.96081C18.9131 4.96081 18.8766 4.91835 18.8255 4.8405C18.7744 4.76973 18.7452 4.73435 18.7159 4.73435C18.7159 4.73435 18.4019 4.71312 18.3143 4.73435C18.1975 4.75558 18.1172 4.8405 18.0003 4.86881C18.0003 4.86881 18.0003 4.85701 18.0003 4.83342" fill="#5F259F"/>
<path d="M20.1472 14.3233C20.2348 14.3092 20.1691 14.196 20.2202 14.1464C20.2567 14.111 20.4466 13.9837 20.4466 13.9837C20.7971 13.8067 21.1549 13.7784 21.2207 13.7714C21.2207 13.7714 22.1115 13.7997 22.316 14.0049C22.3452 14.0332 22.4109 14.0969 22.4694 14.1181C22.63 14.1889 22.8053 14.1323 22.9659 14.2172C23.7035 14.5993 23.7035 14.5993 23.7181 14.6064C23.7838 14.571 24.1416 14.6064 24.1197 14.7267C24.1197 14.748 24.1124 14.7763 24.1124 14.7904C24.1124 14.7904 24.127 14.8116 24.1416 14.8116C24.273 14.8541 24.3461 14.8753 24.4848 14.9107C24.4848 14.9107 24.6236 14.8895 24.6966 14.9815V15.0027C24.5432 15.0664 24.4775 15.1018 24.3315 15.1726C24.1562 15.2009 23.9882 15.0947 23.813 15.1372C23.6085 15.1726 23.5136 15.1938 23.3164 15.2292C23.3091 15.2292 23.3018 15.2292 23.2945 15.2292C23.331 15.0876 23.6377 15.0027 23.499 14.8541C23.4917 14.84 23.4552 14.84 23.3968 14.8541C23.3968 14.8541 23.017 14.8966 22.8929 14.6843C22.7688 14.4649 22.7615 14.4649 22.5205 14.4649C22.4255 14.4649 22.4109 14.4578 22.3744 14.4366C22.1188 14.2667 21.929 14.2667 21.929 14.2667C21.7245 14.2455 21.6223 14.2314 21.4105 14.203C21.3959 14.203 21.3667 14.1747 21.3594 14.1606C21.374 14.1394 21.3959 14.1181 21.4032 14.0898C21.301 13.9837 20.9067 13.9624 20.7241 14.1747C20.6438 14.2738 20.505 14.1889 20.4101 14.2526C20.3444 14.295 20.3371 14.38 20.2713 14.4224C20.264 14.4224 20.2567 14.4366 20.2494 14.4366C20.1326 14.4366 20.0742 14.4366 19.9573 14.4437C19.9646 14.3729 20.0669 14.3446 20.1472 14.3375M23.8787 16.1208C23.8422 16.1208 23.8276 16.1138 23.813 16.0784C23.8057 16.0572 23.7765 16.0288 23.7619 16.0288C23.7619 16.0288 23.7497 16.0359 23.7254 16.0501C23.6304 16.1421 23.499 16.1562 23.499 16.1562H23.4844C23.4844 16.1562 23.4844 16.1562 23.4552 16.1421C23.3895 16.1067 23.3091 16.0925 23.2507 16.0501C23.2215 16.0288 23.2215 15.9793 23.1777 15.9722C23.0608 15.9793 23.0755 15.9085 23.0974 15.8944C23.0974 15.8944 23.112 15.8873 23.1193 15.8873C23.1412 15.8732 23.1704 15.8873 23.1996 15.8873C23.2434 15.8873 23.258 15.8732 23.258 15.8661C23.2653 15.859 23.2653 15.8519 23.2799 15.8519H23.2945C23.2945 15.8519 23.3529 15.8732 23.3822 15.8802C23.4698 15.8944 23.5647 15.8661 23.6596 15.8944C23.6889 15.9085 23.9663 16.0076 23.9371 16.0855C23.9371 16.0996 23.9079 16.1208 23.886 16.1208M24.8061 15.7953C24.8061 15.7953 25.0544 15.7812 25.1274 15.8236C25.1274 15.8236 25.2223 15.8661 25.3319 15.859C25.4268 15.859 25.4998 15.8024 25.5875 15.7812C25.6678 15.767 25.7335 15.8165 25.8065 15.8095C25.8065 15.8095 25.8211 15.8048 25.8504 15.7953V15.7812C25.7627 15.675 25.5875 15.6962 25.4925 15.583C25.456 15.5476 25.4779 15.5052 25.4925 15.4769C25.5144 15.4344 25.5217 15.4132 25.4049 15.307C25.3246 15.2433 25.2735 15.2575 25.2589 15.2716C25.2004 15.2929 25.142 15.2575 25.1931 15.1938C25.237 15.1443 25.31 15.1372 25.3757 15.1301C25.4998 15.1301 25.5875 15.2433 25.697 15.2716C25.8211 15.307 25.8504 15.1726 25.938 15.1443C26.0183 15.1443 26.0913 15.1159 26.1717 15.1301C26.179 15.1301 26.2009 15.1301 26.2082 15.1301C26.2739 15.1513 26.3323 15.1867 26.398 15.215C26.4491 15.2363 26.5003 15.2009 26.5514 15.215C26.5587 15.215 26.566 15.2292 26.5733 15.2363C26.6098 15.2716 26.6171 15.3212 26.6463 15.3636C26.6755 15.3919 26.7193 15.3919 26.7485 15.4202C26.7778 15.4556 26.7997 15.4556 26.8727 15.4698C27.2232 15.5052 27.2159 15.6467 27.2013 15.6892C27.1648 15.8095 26.7997 15.7529 26.7558 15.7316C26.7485 15.7316 26.7047 15.7033 26.6755 15.7175C26.6244 15.7316 26.5952 15.7882 26.5441 15.8095C26.4711 15.8378 26.4126 15.767 26.3396 15.7741C26.325 15.7741 26.325 15.7741 26.1936 15.8165C26.1644 15.8236 26.1644 15.8661 26.1497 15.9156C26.1278 16.0076 26.1132 16.0996 26.0621 16.1067C26.0329 16.1067 25.9745 16.0359 25.9599 16.0076C25.9161 15.9439 25.8869 15.9015 25.7919 15.8944C25.7481 15.8944 25.6459 15.9085 25.5948 15.9156C25.3976 15.951 25.3757 15.9439 25.2443 15.9156C25.1493 15.8944 25.069 15.9369 24.9814 15.9439C24.8791 15.9439 24.8499 15.9156 24.8134 15.859C24.7915 15.8165 24.7915 15.8095 24.7988 15.7882M26.4199 4.77681C26.4199 4.77681 26.3469 4.76265 26.325 4.74142C26.2958 4.71312 26.2958 4.68481 26.3104 4.67066C26.3542 4.62112 26.3761 4.59989 26.4199 4.55035C26.4199 4.55035 26.4199 4.54327 26.4199 4.5362C26.3688 4.49374 26.3177 4.50789 26.2958 4.51497C26.2374 4.55035 26.2228 4.51497 26.2155 4.51497V4.50789C26.2301 4.47958 26.2739 4.47958 26.2885 4.45128C26.3031 4.42297 26.2812 4.38759 26.3031 4.36636H26.325C26.3104 4.21774 26.2301 4.07621 26.2228 3.94175C26.2082 3.70822 26.2593 3.70114 26.2885 3.69406C26.3104 3.69406 26.3323 3.71529 26.3542 3.71529C26.3761 3.71529 26.3834 3.69406 26.4053 3.70822C26.4272 3.71529 26.4418 3.73652 26.4272 3.75775C26.4126 3.77191 26.3834 3.75775 26.3615 3.77191C26.3615 3.77191 26.3615 3.77898 26.3615 3.78606C26.3834 3.80729 26.4272 3.78606 26.4491 3.82852C26.4491 3.82852 26.4418 3.87806 26.4418 3.90637C26.4418 3.93467 26.4637 3.9559 26.4711 3.98421C26.493 4.15405 26.493 4.15405 26.5222 4.21774C26.5368 4.21774 26.5733 4.16821 26.566 4.11867C26.566 4.09036 26.5879 4.09036 26.5952 4.09744C26.6536 4.11867 26.6755 4.13282 26.7339 4.15405C26.7145 4.19179 26.7145 4.21774 26.7339 4.2319L26.9603 4.31682C27.0114 4.31682 26.953 4.24605 26.9895 4.23897C26.9895 4.23897 27.1283 4.20359 27.0991 4.27436C27.1137 4.28851 27.121 4.29559 27.1794 4.30266C27.3108 4.32389 27.3473 4.35928 27.2962 4.41589C27.2816 4.43005 27.2743 4.43712 27.2962 4.45128C27.3473 4.49374 27.3692 4.52204 27.4204 4.5645C27.5591 4.4442 27.5664 4.57158 27.5664 4.57866C27.5664 4.59989 27.5372 4.59281 27.5299 4.61404C27.5299 4.63527 27.5445 4.66358 27.5299 4.68481C27.5299 4.71312 27.5737 4.73435 27.5591 4.76265C27.5737 4.80511 27.6029 4.81219 27.6175 4.81219C27.6394 4.81219 27.6394 4.81219 27.6321 4.77681C27.6175 4.72727 27.6613 4.67066 27.6613 4.66358C27.749 4.69896 27.6613 4.79096 27.7563 4.83342C27.7709 4.80511 27.7417 4.76973 27.749 4.74142C27.7709 4.74142 27.7928 4.75558 27.8293 4.81927C27.8439 4.84757 27.9388 5.10234 27.9388 5.10941C27.9388 5.11649 27.9388 5.13772 27.895 5.11649C27.895 5.11649 27.8877 5.11649 27.8804 5.11649C27.8585 5.10234 27.8366 5.11649 27.8074 5.10234C27.8074 5.10234 27.7928 5.08111 27.7855 5.05988C27.7782 5.03865 27.7636 5.01742 27.7563 5.01034C27.7271 4.97496 27.7198 5.00326 27.7051 5.02449C27.6832 5.07403 27.654 5.02449 27.6467 4.99619C27.6029 4.8405 27.5883 4.79096 27.4934 4.76265C27.4642 4.79804 27.5226 4.86173 27.4642 4.88296C27.4423 4.87588 27.4204 4.8688 27.4131 4.87588C27.3911 4.89711 27.4131 4.92542 27.3911 4.93957C27.3911 4.93957 27.4204 4.97496 27.4131 4.99619C27.4058 4.99619 27.3546 4.98203 27.3181 4.9608C27.3181 4.9608 27.3279 4.94901 27.3473 4.92542C27.3473 4.92542 27.3327 4.89711 27.34 4.88296C27.3473 4.86173 27.4131 4.8688 27.3911 4.83342C27.3765 4.81219 27.2816 4.77681 27.267 4.79096C27.2743 4.8688 27.2816 4.89004 27.1721 4.81927C27.1429 4.79804 27.121 4.78388 27.1064 4.78388C27.0771 4.78388 27.0698 4.81219 27.0406 4.81927C26.9968 4.81927 26.9749 4.81927 26.9384 4.82634C26.8362 4.82634 26.7412 4.76973 26.639 4.76973C26.5733 4.76973 26.5149 4.81219 26.4418 4.80511M25.9526 5.2368C25.9526 5.2368 25.9161 5.2368 25.8942 5.21557C25.865 5.19434 25.8503 5.19434 25.8284 5.19434C25.8284 5.19434 25.8211 5.19434 25.8065 5.19434C25.7627 5.19434 25.7189 5.18726 25.6751 5.18018C25.6532 5.18018 25.6386 5.18018 25.6167 5.18018C25.6094 5.18018 25.5948 5.18018 25.5802 5.17311C25.5656 5.15895 25.529 5.10234 25.6021 5.08818C25.6751 5.08818 25.7335 5.13064 25.8065 5.12357C25.843 5.12357 25.8723 5.10941 25.9088 5.11649H25.9234C25.9234 5.11649 25.9526 5.11649 25.9526 5.13064C25.9526 5.13064 25.9526 5.1448 25.9526 5.15188C25.9526 5.18018 25.9964 5.21557 25.9526 5.2368ZM25.529 4.40174C25.529 4.40174 25.5144 4.40174 25.5071 4.40174C25.5071 4.40174 25.5071 4.40174 25.4998 4.40174C25.4487 4.40174 25.3903 4.38759 25.3319 4.38759C25.31 4.38759 25.2881 4.40174 25.2662 4.38759C25.237 4.38759 25.215 4.37343 25.1858 4.37343C25.0909 4.37343 25.0909 4.37343 25.0617 4.35928C25.0179 4.34512 24.9814 4.31682 24.9449 4.30266C24.8791 4.28851 24.8134 4.28143 24.7477 4.2602C24.7477 4.2602 24.7404 4.2602 24.7404 4.25313C24.7477 4.23897 24.7696 4.23897 24.8134 4.2319C25.1347 4.21774 25.4998 4.35928 25.5363 4.40174H25.529ZM25.4779 5.15188C25.4779 5.15188 25.456 5.13772 25.4414 5.12357C25.4195 5.09526 25.4122 5.09526 25.3757 5.09526C25.3392 5.09526 25.3246 5.09526 25.31 5.08111C25.31 5.08111 25.31 5.06695 25.31 5.05988C25.31 5.05988 25.3246 5.03865 25.3246 5.03157C25.3319 5.01742 25.3246 5.00326 25.3392 4.98911C25.3392 4.98911 25.3538 4.98911 25.3611 4.99619C25.383 5.01034 25.3903 5.02449 25.3976 5.04572V5.0528C25.3976 5.0528 25.4049 5.0528 25.4195 5.0528C25.4487 5.0528 25.4706 5.06695 25.4779 5.07403C25.4779 5.07403 25.4925 5.08111 25.4925 5.08818C25.5071 5.11649 25.4925 5.1448 25.456 5.13064M25.8138 4.7485H25.8211C25.8211 4.7485 25.843 4.75558 25.8504 4.76265C25.8723 4.79804 25.8357 4.87588 25.7992 4.86173C25.7773 4.85465 25.77 4.83342 25.7773 4.79804C25.7773 4.76265 25.8065 4.7485 25.8138 4.74142M19.7091 0.750133C19.7091 0.750133 19.7237 0.693519 19.7529 0.686442C19.7894 0.686442 19.8113 0.686442 19.8478 0.679365H19.8624C19.9062 0.686442 19.9354 0.693519 19.9793 0.700595C20.0012 0.700595 20.0012 0.714749 20.0012 0.714749C20.0012 0.714749 20.0012 0.724185 20.0012 0.743056C20.0012 0.743056 20.0231 0.771363 20.0231 0.785517C20.0231 0.792593 20.0231 0.806747 19.9866 0.813824C19.9427 0.835054 19.7894 0.842131 19.7456 0.813824C19.731 0.813824 19.7091 0.785517 19.7091 0.750133ZM20.0961 0.700595H20.1034C20.118 0.700595 20.1326 0.700595 20.1545 0.700595C20.1886 0.700595 20.2081 0.700595 20.2129 0.700595C20.2129 0.700595 20.2348 0.700595 20.2348 0.714749C20.2348 0.714749 20.2348 0.721826 20.2275 0.721826C20.2129 0.721826 20.1472 0.735979 20.1472 0.735979C20.1326 0.735979 20.1107 0.735979 20.0961 0.735979C20.0596 0.721826 20.0596 0.700595 20.0961 0.700595ZM19.3659 1.45073C19.2782 1.45073 19.2125 1.40827 19.1322 1.40827C19.1322 1.40827 19.1151 1.39648 19.0811 1.37289C19.008 1.37289 18.9934 1.37289 19.0007 1.3375C19.0007 1.3375 18.9642 1.3375 18.9423 1.3375H18.8766C18.8766 1.3375 18.8693 1.3375 18.862 1.3375C18.8401 1.35166 18.8474 1.35873 18.862 1.37289C18.862 1.37996 18.8766 1.39412 18.862 1.39412C18.8328 1.40119 18.7963 1.39412 18.7671 1.40119C18.7086 1.41535 18.7086 1.46488 18.6648 1.48612C18.6575 1.48612 18.6356 1.50027 18.6064 1.50027C18.548 1.50027 18.548 1.47904 18.5407 1.45781C18.5407 1.41535 18.5261 1.38704 18.4385 1.40119C18.4165 1.40119 18.4165 1.40119 18.4019 1.40827C18.3654 1.43658 18.2267 1.4295 18.2267 1.4295C18.1975 1.42242 18.2559 1.37289 18.2997 1.36581C18.3289 1.35873 18.3581 1.35873 18.38 1.34458C18.38 1.34458 18.3946 1.32335 18.38 1.3092C18.3581 1.29504 18.3581 1.28089 18.3581 1.27381C18.3581 1.24551 18.3946 1.23135 18.4019 1.21012C18.4092 1.16766 18.4019 1.11812 18.4092 1.07566C18.4092 1.07566 18.4165 1.06859 18.4312 1.06859C18.548 1.07566 18.548 1.07566 18.5334 1.09689C18.5042 1.1252 18.6064 1.16058 18.6137 1.16058C18.6283 1.16058 18.6356 1.16058 18.6356 1.14643C18.6575 1.11105 18.7013 1.13935 18.7086 1.14643C18.7379 1.16766 18.8328 1.17474 18.8328 1.17474C18.8328 1.17474 18.8839 1.19125 18.9861 1.22428C19.0226 1.23843 19.0665 1.23135 19.1103 1.23843C19.1468 1.24551 19.1906 1.28797 19.1906 1.28797C19.2052 1.3092 19.1541 1.3375 19.1906 1.35166C19.249 1.37289 19.2928 1.33043 19.3439 1.34458C19.3659 1.34458 19.3878 1.35166 19.4097 1.34458C19.4097 1.34458 19.4827 1.35873 19.4827 1.37289C19.4827 1.38704 19.3805 1.4295 19.3805 1.4295M19.3293 0.566137C19.3293 0.566137 19.3586 0.544907 19.3586 0.53783C19.3586 0.53783 19.3586 0.530753 19.3732 0.530753C19.3951 0.530753 19.4024 0.544907 19.4024 0.551984C19.4024 0.55906 19.3659 0.601521 19.3366 0.601521C19.3366 0.601521 19.2636 0.587367 19.2709 0.580291C19.2709 0.580291 19.3074 0.573214 19.3293 0.573214M14.1082 14.2809C14.1155 14.472 14.1228 14.847 14.9479 15.9015C15.2011 15.9015 15.3666 15.9581 15.4445 16.0713C15.6124 16.3473 15.9118 15.9793 16.1382 16.0147C16.182 16.0147 16.2404 16.0501 16.2843 16.0713C16.277 16.0501 16.255 16.0218 16.255 16.0005C16.3646 15.8732 16.5471 15.7882 16.7735 16.0501C16.8977 15.9935 16.9123 15.9864 17.0291 15.9015C17.0218 15.8802 16.9999 15.859 16.9853 15.8378C17.051 15.675 17.2263 15.5972 17.3066 15.4556C17.4307 15.2433 17.3212 14.939 17.5914 14.7763C17.9419 14.5569 18.5626 14.5923 18.9715 14.6135C18.991 14.656 18.8985 14.932 18.694 15.4415C18.694 15.4415 18.7232 15.491 18.7379 15.5122C18.7159 15.5264 18.694 15.5547 18.6721 15.5759C18.6721 15.6561 18.6137 15.7599 18.4969 15.8873C18.5163 16.3874 18.4287 16.7931 18.234 17.1045C18.234 17.1045 18.2559 17.1611 18.2632 17.1824C18.4458 17.239 20.3809 17.147 20.4028 17.147L20.4612 17.1682C20.5196 17.239 20.5269 17.2531 20.578 17.3876C20.8069 17.4867 20.9237 17.6707 20.9286 17.9396C20.6146 18.2368 20.8044 18.626 20.7314 18.9728C20.7314 18.9728 20.7314 18.9799 20.7679 19.0294C20.6438 19.6875 21.4105 19.8574 21.5493 20.374C21.6004 20.3952 21.6077 20.3952 21.7902 20.374C21.9582 20.742 22.3087 20.0909 22.6227 20.1051H22.6665C22.8564 20.0697 22.8856 20.0697 23.0097 20.0555H23.0535C23.4041 20.0555 23.5282 20.4943 23.886 20.466C24.2292 20.4518 24.3461 20.1121 24.6089 19.9706C24.5505 19.5106 24.7185 19.3691 24.8499 19.2558C25.0033 19.1214 25.0179 19.1143 25.5948 19.0648C25.9672 19.0294 26.011 18.6048 26.2885 18.4703C26.3104 18.4703 26.3469 18.4703 26.3688 18.4703C26.6609 18.5694 26.5295 18.6826 26.2082 18.9374C26.2009 19.2629 26.2009 19.4328 26.1936 19.7583C26.2009 19.8432 26.2666 19.9352 26.3761 20.0343C26.7485 19.9423 26.5514 19.6521 26.4418 19.4965C26.2374 19.2063 26.6171 19.0648 26.9092 18.9515C26.9457 18.8242 26.8435 18.7109 26.8873 18.5836C26.9092 18.5765 26.9457 18.5553 26.9676 18.5482C27.0406 18.6402 27.026 18.7888 27.1429 18.8596C27.2962 18.9586 27.4861 18.8312 27.6248 18.9728C27.7198 19.0648 27.6394 19.2205 27.7417 19.3125C27.7636 19.3337 27.8001 19.3337 27.8293 19.3408C27.8366 19.3408 28.9685 19.3549 29.3628 19.086C29.5892 19.1497 29.779 18.8312 30.02 19.0294C29.9835 19.0648 29.9543 19.1355 29.9543 19.1851C30.1222 19.3195 30.3997 19.27 30.4727 19.5602C30.2391 19.6521 30.2391 19.6521 30.1953 19.7583C30.5531 19.8503 30.5531 19.8503 30.575 19.8857C31.1446 19.9423 31.276 20.6287 31.7141 20.834C31.9478 20.9401 32.1815 20.8623 32.4152 20.7986L36.541 12.3136C36.8769 11.6271 37.4319 11.0468 38.0964 10.6364C35.526 5.7534 30.9109 2.05226 25.3319 0.622751H25.3027C25.3027 0.622751 25.3611 0.658135 25.3903 0.672288C25.383 0.672288 25.3684 0.672288 25.3611 0.679365C25.2881 0.658135 25.2443 0.615674 25.1858 0.580291C25.1858 0.580291 25.1785 0.580291 25.1712 0.580291C25.1566 0.580291 25.1566 0.580291 25.142 0.587367C25.1712 0.615674 25.2443 0.658135 25.2881 0.679365C25.2223 0.679365 25.2223 0.679365 25.1858 0.700595C25.215 0.728903 25.2589 0.75721 25.2735 0.792593C25.2516 0.792593 25.2223 0.792593 25.2077 0.792593C25.2662 0.856284 25.383 0.856284 25.4633 0.891668C25.4633 0.891668 25.4487 0.905821 25.4487 0.912898C25.4268 0.912898 25.3976 0.912898 25.3757 0.912898C25.5071 0.997819 25.6678 1.05443 25.7919 1.14643C25.7773 1.14643 25.77 1.16058 25.7627 1.16058C25.7481 1.16058 25.7408 1.15351 25.7262 1.15351C25.7116 1.15351 25.7043 1.15351 25.697 1.16058C25.7457 1.20305 25.7725 1.22899 25.7773 1.23843C25.8796 1.25258 25.9891 1.27381 26.1497 1.44365C26.1278 1.44365 26.0913 1.4295 26.0767 1.42242C26.1424 1.47196 26.2155 1.51442 26.2812 1.57104C26.2812 1.57104 26.2666 1.57811 26.2593 1.58519C26.3834 1.67719 26.3834 1.68426 26.3834 1.71257C26.3396 1.71257 26.3469 1.68426 25.9453 1.55688C25.9453 1.55688 25.9307 1.57104 25.9161 1.57811C25.843 1.55688 25.7773 1.5215 25.7043 1.50027C25.7043 1.51442 25.6897 1.53565 25.7043 1.55688C25.6508 1.55217 25.6118 1.55217 25.5875 1.55688C25.5875 1.55688 25.5875 1.57104 25.5948 1.58519C25.0909 1.57104 24.7988 1.18181 24.3096 1.16058C24.2365 1.09925 24.1927 1.05443 24.1781 1.02613C24.1781 1.02613 24.2146 0.997819 24.2292 0.990742C24.2438 0.990742 24.2584 0.997819 24.273 1.0049C24.2292 0.986025 24.1927 0.976589 24.1635 0.976589C24.1635 0.976589 24.1562 0.997819 24.1489 1.0049C24.127 1.0049 24.0978 1.0049 24.0686 0.997819C24.0686 1.02613 24.0686 1.02613 24.1124 1.07566C24.0102 1.07566 23.3822 0.806747 23.3237 0.750133C23.3237 0.743056 23.3237 0.728903 23.331 0.721826C23.2726 0.693519 23.1923 0.714749 23.1339 0.679365C23.0389 0.622751 22.9951 0.530753 22.9148 0.467063C22.9732 0.459986 23.0389 0.467063 23.0974 0.459986C22.5424 0.155685 22.4694 0.162762 22.4401 0.162762C22.3866 0.162762 22.3306 0.153326 22.2722 0.134455C22.2722 0.134455 22.2722 0.148609 22.2722 0.155685C22.2503 0.155685 22.2211 0.155685 22.1992 0.141532C22.1992 0.113225 22.1992 0.106148 22.0604 0.077841C22.0312 0.077841 22.0093 0.077841 21.9874 0.0707642C22.002 0.077841 22.0239 0.0849178 22.0385 0.0990713C22.0385 0.106148 22.0458 0.134455 22.0604 0.141532C21.9436 0.191069 21.8779 0.120302 21.8048 0.0566107C21.2718 0.0141502 20.7314 -0.00708008 20.1837 -0.00708008C19.7602 -0.00708008 19.3439 0.00707343 18.9277 0.0283037C19.0811 0.049534 19.2417 0.0424572 19.3805 0.0849177V0.0990713C19.2271 0.0849178 19.0592 0.148609 18.9131 0.077841H18.8912H18.8693C18.8693 0.077841 18.862 0.0919945 18.8547 0.0919945C18.862 0.113225 18.8985 0.120302 18.9204 0.134455C18.9058 0.148609 18.9058 0.148609 18.8401 0.183992C18.8474 0.183992 18.8693 0.183992 18.8839 0.198146C18.9058 0.226453 18.9058 0.226453 18.9277 0.23353C18.935 0.23353 18.9569 0.219376 18.9715 0.212299C18.9788 0.205223 18.9861 0.191069 18.9934 0.183992C18.9934 0.183992 19.0178 0.186351 19.0665 0.191069C19.0665 0.191069 19.103 0.169839 19.1468 0.198146C19.1468 0.198146 19.1395 0.205223 19.1322 0.212299C19.1322 0.212299 19.1395 0.212299 19.1468 0.226453C19.2052 0.226453 19.2368 0.226453 19.2417 0.226453C19.2417 0.226453 19.2271 0.191069 19.1833 0.155685C19.1833 0.155685 19.2101 0.14625 19.2636 0.127378H19.2709C19.2709 0.127378 19.6287 0.120302 19.5922 0.191069C19.5922 0.191069 19.5679 0.191069 19.5192 0.191069C19.5192 0.191069 19.5338 0.205223 19.5849 0.226453C19.6872 0.183992 19.7018 0.176916 19.7529 0.226453C19.7529 0.226453 19.7383 0.226453 19.731 0.23353C19.8186 0.23353 19.8916 0.27599 19.972 0.29722C19.9939 0.283067 19.9939 0.25476 20.0231 0.240606C20.1691 0.25476 20.1764 0.27599 20.1837 0.290144C20.1691 0.290144 20.1472 0.290144 20.1253 0.304297C20.1107 0.332604 20.1034 0.332604 20.0742 0.332604C20.0815 0.346758 20.1253 0.375065 20.2129 0.382142C20.2129 0.375065 20.1983 0.360911 20.1837 0.353834C20.1837 0.353834 20.1837 0.346758 20.1837 0.339681C20.2202 0.339681 20.2567 0.318451 20.3006 0.311374C20.3006 0.311374 20.3152 0.318451 20.3152 0.325527C20.2933 0.339681 20.2713 0.346758 20.2494 0.360911C20.264 0.367988 20.2933 0.389218 20.3371 0.410448C20.3371 0.396295 20.3371 0.375065 20.3371 0.360911C20.3517 0.360911 20.3736 0.353834 20.3882 0.346758C20.4685 0.367988 20.5488 0.325527 20.6292 0.360911C20.6292 0.360911 20.5951 0.377424 20.5269 0.410448C20.5269 0.410448 20.5269 0.431679 20.5342 0.445832C20.5488 0.445832 20.5634 0.445832 20.578 0.445832C20.578 0.445832 20.6219 0.443473 20.7095 0.438756C20.7095 0.438756 20.7168 0.410449 20.7387 0.389218C20.7387 0.389218 20.8847 0.431679 20.9067 0.445832C20.8628 0.459986 20.819 0.445832 20.7752 0.459986C20.7971 0.474139 20.8336 0.488293 20.8555 0.502446C20.8482 0.502446 20.8336 0.509523 20.8263 0.509523C20.8263 0.530753 20.9432 0.594444 21.06 0.636905C21.1476 0.672288 21.2426 0.658135 21.3375 0.686442C21.4251 0.707672 21.5127 0.686442 21.6077 0.686442C21.7172 0.686442 21.7975 0.750133 21.8998 0.764286C21.8998 0.764286 21.9071 0.771363 21.9144 0.77844C21.9144 0.785517 21.9144 0.806747 21.9144 0.813824C22.0312 0.835054 22.1554 0.750133 22.2722 0.835054C22.2649 0.835054 22.2576 0.835054 22.2503 0.835054C22.2503 0.842131 22.2503 0.863361 22.2503 0.863361C22.2503 0.863361 22.2113 0.858643 22.1334 0.849207C22.1481 0.891668 22.2357 0.898745 22.2284 0.948282C22.17 0.967153 22.1359 0.976589 22.1261 0.976589C22.1481 1.02613 22.2284 1.05443 22.2649 1.09689C21.9923 1.02613 21.8487 0.983666 21.8341 0.969512C21.8341 0.969512 21.8414 0.962435 21.8414 0.955359C21.8414 0.955359 21.8341 0.948282 21.8267 0.948282C21.7756 0.969512 21.7756 0.962435 21.4908 0.863361C21.4568 0.891668 21.4373 0.90818 21.4324 0.912898C21.4324 0.912898 21.3959 0.912898 21.3886 0.912898C21.3886 0.912898 21.4105 0.931769 21.4543 0.969512C21.4543 0.969512 21.447 0.990742 21.4397 1.0049C22.3671 1.34458 22.3744 1.35166 22.3963 1.37289C22.3963 1.37289 22.372 1.36817 22.3233 1.35873C22.3233 1.35873 22.3087 1.36581 22.3087 1.37289C22.3087 1.37289 22.3379 1.39176 22.3963 1.4295C22.3963 1.4295 22.3671 1.43658 22.3525 1.43658C22.3525 1.43658 22.3452 1.44365 22.3379 1.45073C22.3379 1.45073 22.0969 1.43658 22.0531 1.39412C21.9363 1.39412 21.8706 1.30212 21.7537 1.32335C21.7537 1.32335 21.7537 1.3375 21.7464 1.3375C21.6953 1.3375 21.6442 1.33043 21.5931 1.32335V1.3375C21.8414 1.4295 22.1334 1.45781 22.3525 1.59934V1.6135C22.3525 1.6135 21.8706 1.57104 21.8633 1.57104C21.7829 1.55688 21.7318 1.49319 21.6442 1.48612C21.5712 1.47904 21.4981 1.49319 21.4251 1.48612C21.4251 1.48612 21.4105 1.48612 21.4105 1.49319C21.4105 1.49319 21.3813 1.47432 21.3229 1.43658C21.2645 1.39884 21.2036 1.38468 21.1403 1.39412C21.1403 1.39412 21.1549 1.39412 21.1622 1.38704H21.1768C21.1768 1.38704 21.1987 1.38704 21.206 1.38704C21.1695 1.31627 21.0673 1.34458 21.0016 1.32335H20.9797C20.9797 1.32335 20.746 1.25258 20.7314 1.22428C20.7314 1.2172 20.6949 1.2172 20.6803 1.22428C20.6511 1.23371 20.5927 1.23135 20.505 1.2172C20.505 1.2172 20.4904 1.2172 20.4831 1.22428C20.4831 1.23135 20.4904 1.24551 20.4904 1.25966C20.4904 1.25966 20.4758 1.25966 20.4685 1.25966C20.4174 1.25966 20.3809 1.23135 20.3298 1.23843C20.2494 1.25258 20.191 1.30212 20.1107 1.29504C20.0012 1.28797 19.8478 1.27381 19.8989 1.19597C19.9427 1.14407 20.0596 1.12992 20.2494 1.15351C20.2494 1.15351 20.2786 1.13228 20.286 1.1252C20.3955 1.13228 20.4831 1.06859 20.6 1.08982C20.5707 1.01905 20.4685 1.0332 20.4028 0.997819C20.4247 0.934128 20.5415 0.912898 20.5488 0.842131C20.5634 0.842131 20.5853 0.835054 20.6 0.827977C20.5634 0.771363 20.3225 0.665212 20.3225 0.665212H20.3079C20.2786 0.665212 20.2421 0.648699 20.1983 0.615674C20.1983 0.615674 20.1837 0.629828 20.0888 0.643981C20.0888 0.651058 20.0742 0.658135 20.0669 0.672288C20.045 0.672288 19.9866 0.665212 19.9866 0.622751H20.0377C20.0377 0.622751 19.3147 0.410448 19.2344 0.417525C19.2709 0.438756 19.3147 0.445832 19.3512 0.467063C19.3512 0.467063 19.3439 0.474139 19.3366 0.481216C19.2052 0.509523 19.0811 0.410449 18.9423 0.474139C18.9131 0.474139 18.8839 0.467063 18.8547 0.459986V0.474139C18.8547 0.474139 18.8693 0.474139 18.8766 0.481216C18.8766 0.481216 18.8693 0.49537 18.862 0.49537C18.6648 0.459986 18.4531 0.530753 18.2632 0.459986C18.2632 0.452909 18.2632 0.438756 18.2486 0.431679C18.1391 0.481216 17.9419 0.459986 17.847 0.389218C17.847 0.389218 17.8543 0.382141 17.8616 0.375065H18.4677C18.4677 0.375065 18.4969 0.29722 18.4677 0.27599C18.4531 0.27599 18.4385 0.290144 18.4238 0.290144C18.38 0.290144 18.3508 0.261837 18.307 0.247683C18.3143 0.247683 18.3216 0.247683 18.3289 0.247683C18.3289 0.247683 18.3362 0.23353 18.3362 0.226453C18.3581 0.226453 18.38 0.226453 18.4312 0.226453C18.4312 0.226453 18.4165 0.205223 18.4165 0.198146C18.324 0.174557 18.2875 0.153326 18.307 0.134455C18.307 0.134455 18.3435 0.134455 18.3581 0.134455C18.3581 0.127378 18.3581 0.106148 18.3581 0.0990713C18.3581 0.0990713 18.3581 0.0990713 18.3654 0.0849177C18.3143 0.0849177 18.2632 0.0990713 18.2194 0.0990713C18.2194 0.0990713 18.2194 0.0990713 18.2121 0.106148C18.1829 0.134455 18.1756 0.134455 18.161 0.134455H18.1537C18.1537 0.148609 18.161 0.155685 18.161 0.155685C18.1756 0.155685 18.1975 0.162762 18.2121 0.169839C18.234 0.176916 18.2121 0.198146 18.1975 0.212299C18.1975 0.212299 18.1975 0.214658 18.1975 0.219376C18.1975 0.219376 18.234 0.27599 18.3143 0.283067C18.3143 0.283067 18.4531 0.311374 18.4458 0.318451C18.4458 0.318451 18.4312 0.332604 18.3508 0.332604C18.2851 0.332604 18.2267 0.360911 18.1683 0.360911C18.1245 0.360911 18.0952 0.346758 18.0733 0.332604C18.0733 0.332604 18.0466 0.332604 17.993 0.332604L17.7958 0.318451C17.7666 0.318451 17.7666 0.304297 17.7666 0.304297C17.7666 0.29722 17.7885 0.283067 17.7812 0.268913C17.7812 0.25476 17.752 0.261837 17.752 0.247683C17.752 0.247683 17.752 0.240606 17.7593 0.23353C17.7666 0.23353 17.7885 0.23353 17.7885 0.219376C17.7885 0.191069 17.7885 0.183992 17.8031 0.169839C17.8105 0.169839 17.8324 0.169839 17.8397 0.155685C17.8397 0.155685 17.8543 0.141532 17.8543 0.134455C17.6571 0.155685 17.4599 0.183992 17.2701 0.212299C17.2409 0.226453 17.2117 0.247683 17.1898 0.268913C17.3066 0.325527 17.3869 0.410449 17.4891 0.474139C17.4526 0.49537 17.4161 0.523677 17.3942 0.551984C17.4745 0.580291 17.5841 0.551984 17.6571 0.601521C17.6352 0.608598 17.6133 0.622751 17.5914 0.629828C17.6425 0.665212 17.6717 0.707672 17.7301 0.743056C17.7983 0.662853 17.8445 0.615674 17.8689 0.601521C18.0514 0.658135 18.0587 0.700595 18.066 0.750133C18.0441 0.750133 18.0149 0.750133 17.993 0.750133C18.0076 0.77844 18.0441 0.849207 18.2194 0.898745C18.2559 0.877514 18.2924 0.849207 18.3143 0.8209C18.2997 0.813824 18.2705 0.79967 18.2559 0.792593C18.2705 0.77844 18.2924 0.764286 18.307 0.75721C18.3289 0.764286 18.3508 0.771363 18.3727 0.77844C18.4019 0.75721 18.4238 0.714749 18.4238 0.686442C18.4385 0.679365 18.475 0.665212 18.4896 0.658135C18.4896 0.643981 18.5042 0.622751 18.5115 0.601521H18.475C18.475 0.601521 18.4385 0.573214 18.4238 0.566137C18.4238 0.551984 18.4312 0.530753 18.4385 0.5166C18.6283 0.530753 18.8036 0.601521 19.0007 0.587367C19.0226 0.608598 19.0446 0.651058 19.0519 0.679365C19.008 0.686442 18.9569 0.714749 18.9204 0.735979C19.0372 0.783158 19.1103 0.825618 19.1395 0.863361C19.0811 0.912898 19.0372 0.948282 18.8839 0.997819C18.7038 0.950641 18.6088 0.927052 18.5991 0.927052C18.6819 0.955359 18.7452 0.986025 18.789 1.01905C18.5261 0.986025 18.3533 0.976589 18.2705 0.990742C18.3289 1.01905 18.4019 1.02613 18.4677 1.06859C18.3435 1.1252 18.3289 1.25258 18.1683 1.29504C18.1537 1.32335 18.1245 1.35873 18.0879 1.38704C17.8689 1.39412 17.6644 1.47904 17.438 1.46489C17.4745 1.47904 17.533 1.49319 17.5768 1.50027C17.5914 1.5215 17.5987 1.53565 17.606 1.55688C17.365 1.65596 17.1313 1.76211 16.8831 1.86118C16.6713 2.3424 16.6713 2.34948 16.7297 2.39902C16.7979 2.38958 16.8733 2.38722 16.9561 2.39194C16.9561 2.39194 17.051 2.54763 17.1313 2.68209C17.1021 2.71747 17.0583 2.75285 17.0218 2.78116C17.9346 2.54763 18.6283 3.12792 19.4973 3.09962H19.5265C19.8551 3.14208 19.7894 3.57376 19.7894 3.58084C19.7894 3.58084 20.3444 4.05498 20.6 4.01959C20.6146 3.98421 20.6657 3.94175 20.7022 3.92052C20.7168 3.93467 20.746 3.94883 20.7679 3.96298C20.7679 3.96298 20.7679 3.96298 20.7679 3.97006C20.7825 3.97006 20.7971 3.98421 20.8117 3.99129C20.8117 3.94883 20.7752 3.91344 20.7606 3.87806C20.8409 3.80729 20.8409 3.80729 20.578 3.37561C20.5561 3.30484 20.5342 3.24115 20.5415 3.16331C20.5707 3.15623 20.6146 3.14208 20.6438 3.135C21.0308 2.98639 20.9943 2.80239 20.9943 2.80239C20.9943 2.78116 20.9578 2.70332 20.8701 2.59717C20.7533 2.45563 20.4539 2.48394 20.3663 2.30702C20.3006 2.18671 20.4977 1.98149 20.2567 1.92487C20.191 1.62057 20.191 1.62057 20.2129 1.6135C20.3006 1.6135 20.3955 1.62765 20.4831 1.62765H20.5342C20.6876 1.66303 20.8409 1.62057 20.987 1.60642H21.0235C21.4105 1.74088 21.4981 1.8258 21.4981 1.8258C21.4908 1.8258 21.4762 1.84703 21.4689 1.85411C21.5785 1.88949 21.615 1.84703 21.6442 1.81872H21.6734C21.6734 1.81872 21.7026 1.83288 21.7245 1.83288H21.7464C21.7464 1.83288 21.7902 1.87534 21.8121 1.88949C21.8268 1.86826 21.856 1.84703 21.8779 1.83288C21.8925 1.83288 21.9071 1.83995 21.9217 1.84703C21.9217 1.84703 22.0604 2.23625 22.3598 2.2221C22.4767 2.25041 22.5935 2.29287 22.7103 2.32117C22.7322 2.30702 22.7615 2.28579 22.7761 2.27871L22.798 2.26456C22.8418 2.20794 22.9148 2.17256 22.9513 2.11595C22.9367 2.07349 22.9002 2.0381 22.8783 1.99564C22.8929 1.98149 22.9075 1.9461 22.9002 1.92487C22.9075 1.92487 22.9221 1.91072 22.9367 1.91072C22.9367 1.91072 23.112 2.0098 23.499 2.18671C24.0175 2.42732 24.0248 2.42732 24.0394 2.49809C24.1343 2.49809 24.1854 2.51224 24.2438 2.6184C24.2292 2.6184 24.2146 2.63255 24.2073 2.63255C24.2365 2.69624 24.3388 2.70332 24.368 2.76701C24.368 2.76701 24.4118 2.75757 24.4994 2.7387C24.5432 2.76701 25.0909 3.02885 25.2589 2.92977C25.3246 2.94393 25.3903 2.97223 25.456 2.98639C25.456 2.98639 25.4171 3.01234 25.3392 3.06423C25.4414 3.11377 25.5948 3.08546 25.6532 3.20577C25.6678 3.20577 25.6897 3.20577 25.7043 3.20577C25.7043 3.19869 25.7043 3.17746 25.7043 3.17038C25.7116 3.16331 25.7262 3.14915 25.7408 3.14208C25.9307 3.2553 26.0183 3.30484 26.2082 3.43222C26.2617 3.50299 26.2861 3.55489 26.2812 3.58791C26.2082 3.61622 26.2155 3.69406 26.1424 3.72945C26.0938 3.71529 25.9964 3.75775 25.8504 3.85683C25.8504 3.94175 25.714 4.02431 25.4414 4.10452C25.4414 4.10452 24.6601 4.11867 24.6016 4.11867C24.3826 4.11867 24.2414 4.13046 24.1781 4.15405C24.054 4.21067 24.1124 4.38051 23.9444 4.41589C23.9444 4.41589 23.9444 4.41589 23.9152 4.43712C23.7181 4.64235 23.645 4.90419 23.4917 5.13064C23.7838 4.94665 23.886 4.63527 24.2073 4.48666C24.3826 4.40882 24.7258 4.33805 24.9595 4.46543C24.9522 4.47251 24.9449 4.48666 24.9376 4.49374C24.9595 4.50081 25.0033 4.52912 25.0252 4.5362C25.0252 4.55035 25.0252 4.57158 25.0179 4.58573C24.8499 4.63527 24.6601 4.64943 24.514 4.74142C24.5651 4.74142 24.6163 4.7485 24.6601 4.75558C24.7185 4.76265 24.7696 4.79804 24.8207 4.81927C24.8426 4.80511 24.8718 4.77681 24.8937 4.76265C25.069 4.69189 25.0544 4.81927 25.0471 4.96788C25.0763 4.96788 25.1201 4.96788 25.1566 4.96788C25.1566 4.96788 25.2516 5.21557 25.6094 5.18018L25.6386 5.20141C25.6386 5.20141 25.624 5.22972 25.624 5.2368C25.6532 5.24387 25.697 5.25095 25.7335 5.25095C25.7335 5.25095 25.7335 5.25095 25.7481 5.25095C25.7481 5.25095 25.7481 5.25095 25.9526 5.27218C25.9599 5.27926 25.9745 5.29341 25.9818 5.30756C25.9672 5.30756 25.9453 5.31464 25.9307 5.32172C25.9307 5.32879 25.9234 5.35002 25.9161 5.36418C25.9453 5.36418 25.9818 5.35002 26.011 5.35002L26.0329 5.33587C26.1595 5.22264 26.2228 5.1047 26.2228 4.98203C26.2228 4.98203 26.2593 4.98203 26.2739 4.98203C26.2958 5.03865 26.3104 5.09526 26.3396 5.1448C26.3688 5.15895 26.4126 5.17311 26.4418 5.18018H26.4857C26.4857 5.18018 26.5368 5.21557 26.5587 5.2368C26.5441 5.2368 26.5295 5.2368 26.5149 5.24387L26.4784 5.25803C26.179 5.45618 26.1717 5.47033 26.0694 5.39248C26.0694 5.39956 26.0548 5.42079 26.0475 5.42787C26.1205 5.47505 26.1644 5.51043 26.179 5.53402C26.1059 5.62602 25.9307 5.5694 25.865 5.67556C25.8138 5.6614 25.7773 5.63309 25.7189 5.62602C25.6459 5.7534 25.6021 5.89493 25.5217 6.02232C25.5071 6.02232 25.4852 6.02232 25.4706 6.02232C25.2443 5.98693 25.0909 5.73217 25.456 5.51987C25.4463 5.47269 25.4609 5.40192 25.4998 5.30756C25.3246 5.32172 25.2516 5.57648 25.0398 5.46325C25.0471 5.60479 24.9668 5.57648 24.7331 5.50571C24.7258 5.51987 24.7039 5.52694 24.6966 5.53402C24.8134 5.51279 24.8718 5.60479 24.8645 5.68263C24.6795 5.78171 24.5773 5.83832 24.5578 5.85247C24.5578 5.85247 24.4848 5.83832 24.4556 5.82417C24.3826 6.01524 23.9809 6.10724 24.1562 6.37615C24.1489 6.39738 24.1197 6.42569 24.0978 6.43985C24.0978 6.44692 24.0978 6.46815 24.1051 6.48231C24.2292 6.49646 24.2803 6.59553 24.3607 6.65215C24.3461 6.65215 24.3315 6.6663 24.3169 6.67338C24.2876 6.6663 24.2438 6.65215 24.2146 6.64507C24.1927 6.6663 24.1635 6.69461 24.1343 6.70876C24.1051 6.70168 24.0686 6.67338 24.0394 6.65922C23.9006 6.91399 23.5647 6.78661 23.3456 6.89276C23.3456 6.90691 23.3456 6.92814 23.3456 6.94229C23.5355 6.88568 23.6304 6.89983 23.6742 6.89983C23.6742 6.89983 23.426 7.07675 23.2434 6.98475C23.2142 6.99891 23.185 7.02722 23.1704 7.05552C23.2361 7.12629 23.3895 7.30321 23.112 7.52259C22.9416 7.47541 22.8953 7.37634 22.9732 7.22536C22.6373 7.26783 22.9002 7.55797 22.9659 7.60043C23.0316 7.64289 23.1704 7.74197 22.9221 8.13827C22.9075 8.13119 22.8929 8.11704 22.8783 8.10996C22.8783 8.09581 22.8783 8.09581 22.9513 7.96135C22.7103 7.72781 22.5935 7.62166 22.7249 7.41644C22.686 7.407 22.6251 7.37634 22.5424 7.32444C22.6008 7.40228 22.6008 7.41644 22.5716 7.48013C22.5424 7.4872 22.5132 7.50843 22.4986 7.52966C22.6227 7.78443 22.6227 7.81981 22.6227 7.86935C22.5059 7.83161 22.4304 7.81509 22.3963 7.81981L22.4328 7.83397C22.6178 7.96135 22.7103 8.03447 22.7103 8.05334C22.6373 8.03211 22.5789 7.98965 22.5059 7.96135C22.5862 8.01088 22.6519 8.0675 22.7395 8.10996C22.7322 8.13827 22.703 8.16657 22.6811 8.1878C22.7103 8.20196 22.7395 8.23734 22.7541 8.27272C22.6373 8.23026 22.5667 8.21139 22.5424 8.21611C22.6811 8.23026 22.7907 8.32226 22.9294 8.33642C22.9294 8.35057 22.944 8.36472 22.9513 8.3718C22.9513 8.38595 22.9294 8.40718 22.9221 8.42134C22.9562 8.4921 22.9708 8.53928 22.9659 8.56287C22.8345 8.60533 22.7639 8.62656 22.7541 8.62656C22.7541 8.62656 22.9586 8.68318 23.0755 8.65487C23.0828 8.65487 23.1047 8.6761 23.1193 8.68318C23.1193 8.68318 23.0828 8.95917 22.8564 8.83179C22.7882 8.85538 22.7371 8.86245 22.703 8.85302C22.8053 8.9002 22.8588 8.92614 22.8637 8.93086C22.8418 8.9804 22.8345 8.99455 22.7322 9.00163C22.7834 9.01578 22.7834 9.01578 22.9148 9.02286C22.9148 9.03701 22.9294 9.05824 22.9367 9.06532C22.4255 9.34839 22.4182 9.34839 22.4036 9.42624C22.2795 9.47577 22.1261 9.46162 22.0239 9.55362C22.0166 9.56069 22.0093 9.56777 22.002 9.58192C21.2426 10.4524 21.2353 10.4665 21.228 10.5939C21.228 10.6222 21.228 10.6293 21.228 10.6505C21.3594 11.2308 21.9144 11.6554 22.0239 12.2711C22.0239 12.2711 22.075 12.8443 21.6588 12.8797C20.8409 11.9031 20.8409 11.9102 20.8336 11.8677C20.8117 11.8677 20.7825 11.8536 20.7679 11.8465C20.7095 11.6837 20.9432 11.5563 20.8263 11.3865C20.7533 11.2803 20.3152 10.9407 20.1326 10.9053C20.0012 10.9407 19.9135 11.0822 19.7456 11.0751C19.5046 11.061 19.4097 10.792 19.1541 10.792C18.935 10.792 18.7159 10.884 18.4969 10.792C18.3143 10.9194 18.1025 10.8345 17.9127 10.8628C17.8543 10.9336 17.8324 10.969 17.7155 10.9477C17.6863 10.9124 17.6425 10.8699 17.5987 10.8416C17.5549 10.8628 17.5038 10.8911 17.4672 10.9194V10.9407C17.5987 11.0114 17.752 11.0114 17.8908 11.068C17.8251 11.1954 17.5768 11.2662 17.1605 11.3016C17.1386 11.2874 16.9634 11.1317 16.7808 11.1176C16.737 11.1671 16.6129 11.3228 16.2697 11.068C15.7585 11.16 15.3715 11.528 14.8968 11.6837H14.8603C14.5195 11.9574 14.3491 12.0942 14.3491 12.0942C14.2688 12.4339 14.5974 12.7523 14.3856 13.1132C14.3418 13.1911 14.1812 14.2738 14.1812 14.2809" fill="#5F259F"/>
<path d="M20.286 5.6048C20.1837 5.6048 20.0961 5.55526 20.0012 5.53403C19.8844 5.51988 19.7602 5.5128 19.6434 5.49865C19.417 5.47034 19.4097 5.47742 19.3805 5.49865C19.344 5.52695 19.3148 5.52695 19.2856 5.5128C19.2052 5.45619 19.2052 5.45619 18.8328 5.5128C18.7744 5.51988 18.7817 5.57649 18.7306 5.59064C18.7233 5.58357 18.716 5.56234 18.7014 5.55526C18.5042 5.52695 18.2778 5.9091 18.2778 5.93741C18.2778 5.93741 18.3752 5.86664 18.5699 5.7251C18.6283 5.67557 18.6429 5.67557 18.6576 5.67557C18.5845 5.8171 18.4458 5.93033 18.402 6.07894C18.3582 6.21576 18.3484 6.39504 18.3728 6.61677C18.3947 6.78662 18.5845 6.92815 18.7963 6.74416C19.0227 6.55308 18.862 6.31955 18.8109 6.24171C18.7452 6.14263 18.8547 5.87371 18.8547 5.86664H18.8766C18.8766 5.86664 18.9862 5.75341 19.0519 5.73218C19.0519 5.73218 19.0884 5.74633 19.1103 5.74633C19.1395 5.70859 19.1833 5.67557 19.2417 5.64726C19.2417 5.64726 19.1906 5.61895 19.2052 5.58357C19.2417 5.49157 19.7383 5.57649 19.8259 5.71803C19.8259 5.73218 19.804 5.74633 19.7967 5.76049C19.8624 5.84541 19.899 5.88787 19.804 5.97987C19.7115 6.07894 19.6701 6.13555 19.6799 6.14971C19.7675 6.26294 19.8478 6.00817 19.9866 6.0294C20.0158 6.0294 20.1107 6.07894 20.1472 6.22755C20.1618 6.27709 20.1691 6.31955 20.2057 6.32663C20.2568 6.34078 20.3736 6.27709 20.4028 6.23463C20.4466 6.15679 20.359 6.09309 20.3736 6.02233C20.3809 5.95156 20.4758 5.92325 20.4904 5.85248C20.5051 5.74633 20.3663 5.73926 20.3225 5.66141C20.432 5.54818 20.527 5.78172 20.6511 5.80295C20.7314 5.81002 20.8117 5.88079 20.9067 5.84541C20.9067 5.84541 20.9067 5.84541 20.8264 5.78172V5.76756C20.9067 5.76756 20.9067 5.76756 20.914 5.76756C20.8702 5.68972 20.6 5.47034 20.5781 5.46326C20.4977 5.44203 20.4247 5.46326 20.3444 5.46326C20.2422 5.44911 20.1472 5.40665 20.0377 5.41373C19.9063 5.41373 19.7748 5.36419 19.6361 5.3925C19.6361 5.41373 19.7164 5.47034 19.8332 5.47034C20.2495 5.45619 20.286 5.45619 20.3298 5.53403C20.3298 5.54818 20.2933 5.59772 20.2568 5.59772" fill="#5F259F"/>
<path d="M20.0231 6.64507C20.0231 6.64507 19.9574 6.72999 19.9427 6.77245C20.1545 6.8503 20.5634 6.99183 21.3448 6.43984C21.3594 6.43277 21.374 6.41861 21.3813 6.41154C21.3813 6.39738 21.3813 6.37615 21.3813 6.362C21.3667 6.362 21.3448 6.36908 21.3375 6.37615H21.2791C21.1038 6.37615 20.9773 6.40682 20.8994 6.46815C20.5708 6.38323 20.3736 6.79368 20.0304 6.63799" fill="#5F259F"/>
<path d="M206.233 13.4812C205.963 13.2689 205.598 13.092 205.131 12.9434C204.663 12.7948 204.123 12.6957 203.502 12.6462C202.677 12.5825 201.713 12.6108 200.61 12.6108H176.608C176.089 12.6108 175.49 12.9859 175.264 13.4458L169.166 26.3892H182.274C182.793 26.3892 183.391 26.0212 183.611 25.5542L184.655 23.3391H175.68L176.805 20.9614H185.779L187.189 17.975H178.214L178.988 16.3332C179.207 15.8732 179.806 15.4981 180.324 15.4981H191.001L185.874 26.3892H190.416C190.935 26.3892 191.534 26.0212 191.753 25.5542L196.47 15.4981H198.544C198.544 15.4981 200.055 15.5052 200.442 15.6184C200.822 15.7316 201.056 15.8873 201.165 16.1067C201.268 16.3261 201.26 16.5738 201.136 16.8639C200.99 17.2107 200.72 17.5362 200.326 17.8476C199.931 18.1519 199.449 18.3854 198.872 18.534C198.303 18.6826 197.697 18.7534 197.069 18.7534C196.623 18.7534 196.178 18.718 195.747 18.6543L195.806 26.3822H200.749C201.268 26.3822 201.64 25.9788 201.574 25.4763L200.888 20.3032C201.859 20.0414 202.633 19.7795 203.217 19.5248C203.802 19.2771 204.327 18.9728 204.78 18.626C205.24 18.2793 205.634 17.9113 205.948 17.515C206.255 17.1187 206.511 16.6941 206.708 16.2412C206.883 15.8378 206.978 15.4627 206.993 15.1089C207.007 14.755 206.956 14.4507 206.825 14.1818C206.701 13.92 206.496 13.6794 206.226 13.4742M168.882 12.6037C168.356 12.6037 167.757 12.9788 167.538 13.4388L163.996 20.9543L161.616 12.6037H155.657C155.139 12.6037 154.54 12.9788 154.321 13.4388L148.223 26.3822H152.349C152.875 26.3822 153.474 26.0142 153.685 25.5471L157.256 17.9608L160.039 26.3751H165.566C166.085 26.3751 166.684 26.0071 166.903 25.54L173 12.5966H168.874L168.882 12.6037ZM147.478 12.6037C146.953 12.6037 146.354 12.9788 146.135 13.4388L140.037 26.3822H144.872C145.397 26.3822 145.996 26.0142 146.208 25.5471L152.305 12.6037H147.471H147.478ZM136.525 12.6037H108.718C108.192 12.6037 107.593 12.9788 107.374 13.4388L103.876 20.8623L101.452 12.6108H95.493C94.9745 12.6108 94.3684 12.9788 94.1566 13.4388L88.0592 26.3822H92.1923C92.7108 26.3822 93.3096 26.0142 93.5286 25.5471L97.1068 17.9608L99.8817 26.3751H105.41C105.935 26.3751 106.534 26.0071 106.746 25.54L111.091 16.319C111.31 15.859 111.909 15.4839 112.427 15.4839H118.057L112.931 26.3751H117.064C117.583 26.3751 118.181 26.0071 118.4 25.54L122.745 16.319C122.964 15.859 123.563 15.4839 124.082 15.4839H130.092L124.965 26.3751H137.723C138.241 26.3751 138.847 26.0071 139.059 25.54L140.103 23.325H131.479L136.54 12.5896L136.525 12.6037ZM84.3788 17.3098C84.2546 16.6941 83.8822 16.227 83.2834 15.8944C82.6773 15.5618 81.9106 15.392 80.9759 15.392C79.9901 15.392 79.0188 15.583 78.0549 15.9581C77.091 16.3402 76.2585 16.8639 75.5429 17.5433C74.82 18.2227 74.3015 18.9445 73.9729 19.7229C73.6662 20.4377 73.5859 21.0887 73.7246 21.6761C73.8634 22.2635 74.2577 22.7305 74.9076 23.0632C75.5648 23.3958 76.3389 23.5656 77.2298 23.5656C78.1791 23.5656 79.1284 23.3816 80.085 23.0065C81.0343 22.6315 81.8668 22.1078 82.5678 21.4355C83.2761 20.7561 83.7873 20.0555 84.1013 19.3125C84.408 18.5977 84.5029 17.9254 84.3715 17.3239M89.7022 19.2346C89.2129 20.3598 88.5192 21.4001 87.5918 22.3484C86.6717 23.2967 85.5764 24.0964 84.3204 24.7545C83.057 25.4126 81.6915 25.8939 80.2091 26.2052C78.7194 26.5166 77.2444 26.6652 75.7766 26.6652C74.3088 26.6652 73.0017 26.5166 71.7968 26.2123C70.5992 25.9151 69.6499 25.4339 68.9562 24.7616C68.2625 24.0893 67.8827 23.3462 67.8243 22.5253C67.7586 21.7044 67.9485 20.7915 68.372 19.7937C69 18.3217 69.9858 17.0267 71.3295 15.9156C72.6731 14.8046 74.338 13.9341 76.3243 13.3043C78.3032 12.6816 80.3625 12.3702 82.5094 12.3702C83.8822 12.3702 85.1382 12.5188 86.2847 12.8019C87.4312 13.092 88.344 13.5591 89.0231 14.196C89.7022 14.8329 90.1038 15.5618 90.2207 16.3898C90.3375 17.2178 90.1695 18.1731 89.7095 19.2488M68.8905 16.2765C68.6933 16.7295 68.4377 17.1541 68.131 17.5504C67.817 17.9467 67.43 18.3147 66.9626 18.6614C66.5026 19.0082 65.9768 19.3054 65.3926 19.5602C64.8085 19.8149 64.0271 20.0697 63.0632 20.3386L63.7496 25.5117C63.8153 26.0142 63.4502 26.4175 62.9244 26.4175H57.9807L57.9223 18.6897C58.3605 18.7534 58.7986 18.7888 59.244 18.7888C59.8721 18.7888 60.4708 18.718 61.0477 18.5694C61.6173 18.4208 62.1066 18.1943 62.5009 17.883C62.8952 17.5716 63.1654 17.2461 63.3115 16.8993C63.4356 16.6092 63.4429 16.3544 63.3407 16.1421C63.2384 15.9227 62.9975 15.7599 62.6177 15.6538C62.238 15.5476 61.61 15.5335 60.7191 15.5335H58.6599L53.9206 25.5896C53.7089 26.0495 53.1028 26.4246 52.5843 26.4246H48.0422C48.0422 26.4246 53.1247 15.6326 53.1685 15.5335H44.4641C43.9456 15.5335 43.3468 15.9015 43.1204 16.3615L42.3391 18.0033H47.1806L45.7712 20.9897H40.9443L38.7828 25.5825C38.5638 26.0425 37.965 26.4175 37.4465 26.4175H32.605L38.8997 13.4742C39.126 13.0142 39.7248 12.6462 40.2506 12.6462H62.7784C63.8737 12.6462 64.8377 12.6179 65.6701 12.6816C66.2981 12.7311 66.8385 12.8302 67.3059 12.9788C67.7659 13.1274 68.1383 13.3043 68.4085 13.5166C68.6787 13.7218 68.8759 13.9624 69.0073 14.2243C69.1388 14.4861 69.1899 14.7975 69.1753 15.1513C69.1534 15.5052 69.0584 15.8873 68.8905 16.2836" fill="#5F259F"/>
</g>
<defs>
<clipPath id="clip0_42_880">
<rect width="207" height="39" fill="white"/>
</clipPath>
</defs>
</svg>
