<svg width="290" height="56" viewBox="0 0 290 56" fill="none" xmlns="http://www.w3.org/2000/svg">
<g clip-path="url(#clip0_1_18)">
<path d="M22.0157 6.01562C21.9441 6.01562 21.9236 6.19852 21.9441 6.22901C21.9543 6.24933 21.985 6.24933 22.0259 6.22901C22.0873 6.1782 22.1078 6.14772 22.1589 6.09691C22.2305 5.94449 22.0975 5.74126 22.0259 5.61932C22.0259 5.61932 21.9339 5.45674 21.9339 5.27383C21.9339 5.19254 21.6474 4.90801 21.453 5.0706C21.3405 5.16205 21.228 5.28399 21.3814 5.28399C21.494 5.28399 21.5144 5.28399 21.5144 5.29415C21.5349 5.34496 21.4223 5.3348 21.4223 5.38561C21.5042 5.48722 21.5349 5.52787 21.6167 5.62948C21.6167 5.62948 21.627 5.63964 21.6372 5.6498C21.6883 5.69045 21.7088 5.67013 21.7395 5.61932C21.7702 5.57867 21.9032 5.67013 21.9032 5.67013C21.9032 5.67013 21.9032 5.70061 21.8827 5.7311C21.8418 5.7819 21.8316 5.80223 21.8929 5.79206C21.9441 5.79206 21.985 5.74126 22.0259 5.77174C22.0669 5.80223 22.0362 5.85303 22.0566 5.88352C22.0566 5.90384 22.0873 5.90384 22.0975 5.92416V5.93433C22.0975 5.95465 22.0464 6.00546 22.0157 6.01562Z" fill="white"/>
<path d="M17.4633 2.93666C17.4633 2.93666 17.4633 2.93666 17.4633 2.94682C17.4633 2.94682 17.4633 2.9773 17.494 2.9773C17.5349 2.98747 17.6065 2.98747 17.8828 2.9265C17.9544 2.91633 18.026 2.9265 18.0976 2.89601C18.1385 2.88585 18.1283 2.83504 18.159 2.81472C18.2272 2.78085 18.2954 2.76391 18.3636 2.76391C18.3636 2.76391 18.4659 2.76391 18.4557 2.72327C18.4557 2.68939 18.4864 2.65552 18.5477 2.62165C18.5273 2.61149 18.4966 2.60133 18.4864 2.60133C18.3227 2.61149 18.2715 2.62165 18.2613 2.5302C18.2613 2.5302 18.2613 2.52681 18.2613 2.52004C18.2613 2.52004 18.2408 2.52004 18.2101 2.5302C18.1692 2.55052 18.1692 2.5302 18.1692 2.52004C18.1692 2.52004 18.1658 2.51326 18.159 2.49971C18.159 2.49971 18.1181 2.49971 18.0976 2.48955C18.0567 2.47939 18.0362 2.43874 18.0055 2.42858C18.0055 2.42858 17.9987 2.42181 17.9851 2.40826C17.9851 2.40826 17.9851 2.37778 17.9851 2.35745H17.9748C17.9748 2.35745 17.8623 2.40826 18.0158 2.5302C18.0362 2.55052 18.0158 2.57084 18.0158 2.59117C18.0158 2.61149 18.0465 2.62165 18.0465 2.64197C18.0465 2.65214 18.0465 2.6623 18.0465 2.67246C18.0465 2.67246 17.9339 2.72327 17.9135 2.72327C17.893 2.72327 17.8623 2.72327 17.8418 2.72327C17.8214 2.72327 17.6475 2.82488 17.6065 2.87569C17.5963 2.88585 17.5963 2.89601 17.5759 2.87569C17.5349 2.86553 17.5349 2.85537 17.5145 2.86553C17.494 2.86553 17.494 2.8452 17.4736 2.8452C17.4736 2.8452 17.4633 2.8452 17.4531 2.8452C17.4224 2.86553 17.4531 2.89601 17.4531 2.91633L17.4633 2.93666Z" fill="white"/>
<path d="M31.2639 38.6238C32.1164 38.468 32.1164 38.468 31.2639 38.6238V38.6238Z" fill="white"/>
<path d="M14.3942 10.6188C14.3942 10.6188 14.3737 10.6899 14.384 10.7204C14.384 10.7204 14.3942 10.7509 14.3942 10.761C14.4249 10.7712 14.4453 10.7813 14.4658 10.8017C14.4658 10.8017 14.476 10.822 14.4863 10.8321C14.4863 10.8321 14.4897 10.8321 14.4965 10.8321C14.5681 10.8118 14.609 10.7407 14.6602 10.7H14.6704C14.6806 10.7 14.7113 10.6696 14.65 10.5781C14.6193 10.5375 14.6704 10.4968 14.6806 10.4562C14.6602 10.446 14.5988 10.4968 14.5783 10.5578C14.5681 10.5883 14.5476 10.5781 14.5374 10.5679C14.517 10.5578 14.5272 10.5273 14.5272 10.5171C14.5272 10.4765 14.4965 10.4562 14.4965 10.4257C14.4863 10.4257 14.4965 10.4054 14.4965 10.3952C14.4965 10.3952 14.4965 10.385 14.476 10.3749H14.4658C14.4658 10.3749 14.4147 10.3749 14.4044 10.3952C14.3635 10.4257 14.3533 10.4765 14.3533 10.4968C14.3533 10.5578 14.3533 10.5679 14.384 10.5883C14.3942 10.5984 14.3942 10.5984 14.3942 10.6289" fill="white"/>
<path d="M11.4069 5.7514C11.4069 5.7514 11.4171 5.72091 11.4375 5.70059C11.4785 5.65994 11.4785 5.64978 11.4785 5.63962C11.458 5.60914 11.4989 5.51768 11.4989 5.50752C11.4989 5.50752 11.6012 5.3551 11.6524 5.3551C11.6626 5.3551 11.6728 5.36526 11.6933 5.37542C11.7138 5.37542 11.724 5.37542 11.7445 5.37542C11.7445 5.37542 11.7342 5.41607 11.7445 5.42623C11.7956 5.40591 11.8468 5.37542 11.8979 5.37542C11.8161 5.46688 11.7138 5.53801 11.6421 5.62946C11.6319 5.63962 11.6217 5.65994 11.6012 5.68027C11.5705 5.73107 11.591 5.78188 11.5501 5.82253C11.5194 5.85301 11.4785 5.8835 11.458 5.9343C11.5126 5.92753 11.5398 5.92753 11.5398 5.9343C11.5398 5.9343 11.4887 6.00543 11.4785 6.03592C11.4785 6.0664 11.4785 6.09689 11.4682 6.12737C11.4682 6.13753 11.458 6.15786 11.4375 6.17818C11.3864 6.24931 11.3762 6.21883 11.3762 5.96479C11.3966 5.8835 11.4069 5.83269 11.4171 5.7514M36.8498 45.9808C36.8498 45.9808 36.2359 45.2288 35.2538 44.7207C33.8216 43.9789 33.8011 43.9688 33.8216 43.6944C33.7909 43.6843 33.75 43.6538 33.7295 43.6436C33.7295 43.6436 33.7295 43.6436 33.6579 43.603C33.4942 43.5285 33.368 43.4336 33.2794 43.3184C33.2794 43.3184 33.2998 43.2473 33.3101 43.2067C33.3101 43.166 33.3101 43.1559 33.3101 43.1254C33.3101 43.1254 32.9008 42.3633 32.7781 42.0381C32.4609 41.1439 32.4609 41.1439 32.1949 41.0321C32.0619 40.9508 31.9085 40.8492 31.7243 40.5342C31.663 40.4224 31.755 40.3208 31.7448 40.2192C31.6834 40.1989 31.5914 40.2598 31.5402 40.1989C31.4481 40.1074 31.4481 39.9652 31.3458 39.8839C31.2844 39.8229 31.1821 39.894 31.1208 39.8229C31.1003 39.7924 31.0594 39.7111 31.0389 39.5485C31.0287 39.4063 31.1617 39.3351 31.2128 39.2335C31.264 39.1217 31.1514 39.0303 31.1821 38.9185C31.2026 38.8169 31.2333 38.7255 31.264 38.634C31.2947 38.5527 31.3151 38.4816 31.3458 38.4003C31.4072 38.1971 31.3867 37.9837 31.5095 37.8008C31.4584 37.7093 31.4584 37.7195 30.865 37.5467C30.732 37.5061 30.5785 37.5772 30.4558 37.4959C30.3432 37.4146 30.3944 37.2724 30.333 37.1809C30.2409 37.0691 30.2614 36.9878 30.2614 36.9878C30.2819 36.9065 30.333 36.8964 30.4353 36.9065C30.5479 36.9065 30.5785 36.9065 30.7729 36.6627C30.865 36.5509 30.7934 36.3985 30.865 36.2867C31.0082 36.0631 31.1924 35.8599 31.3151 35.616C31.3356 35.5855 31.3561 35.5347 31.3765 35.4941C31.489 35.2604 31.622 35.0267 31.6834 34.9352C31.8369 34.7218 32.154 34.7218 32.3177 34.5084C32.3177 34.5084 32.3177 34.4881 32.3279 34.4881C32.3484 34.417 32.3484 34.3154 32.3279 34.2544C32.3279 34.2442 32.3279 34.2341 32.3484 34.1325C32.5837 33.7971 32.952 33.6244 33.2282 33.3399C33.75 32.8013 33.5147 30.7588 33.5147 30.7284C33.4021 30.3117 32.4405 29.3057 32.2052 29.2956H32.1847C32.0517 29.3159 31.9085 29.2854 31.7755 29.3464C31.7755 29.387 31.7755 29.4277 31.7857 29.4582C31.755 29.4785 31.7141 29.4988 31.6834 29.5191H31.6527C31.53 29.6072 31.4004 29.6817 31.264 29.7427C31.264 29.8037 31.3458 29.9696 31.5095 30.2406C30.9673 30.7182 30.5683 29.8443 30.0568 29.7427H30.0056C29.8147 29.8104 29.6783 29.8375 29.5964 29.824C29.2384 29.1432 28.2256 28.5436 28.113 28.5233C28.1028 28.5538 28.0823 28.5843 28.0721 28.6148C28.113 28.6656 28.154 28.7469 28.154 28.818C28.1233 28.818 28.0721 28.818 28.0414 28.818C27.7686 28.5673 27.6731 28.3506 27.755 28.1677C27.622 27.9746 27.622 27.9644 27.6117 27.8425C27.6117 27.8425 26.4762 26.8365 26.292 26.6841C26.3125 26.6536 26.3432 26.6231 26.3636 26.6028H26.425C26.425 26.5215 26.425 26.43 26.425 26.3487C26.4864 26.2979 26.558 26.2166 26.5989 26.1455C26.4557 26.2573 26.2716 26.2471 26.1079 26.3081C26.0874 26.3792 25.9749 26.5926 23.7344 25.9525C23.4684 25.8712 23.0592 25.4952 22.9058 25.3224C21.9748 24.2758 21.6168 24.3977 20.9313 24.6619C20.5528 24.8042 20.4914 24.7839 18.8852 24.2656H18.8034C18.5476 24.286 15.3865 23.0767 15.2228 21.9082C15.5195 21.6846 15.4785 21.329 15.4376 21.2172C15.158 20.4178 14.909 19.8894 14.6908 19.632C14.3839 19.2763 13.9031 19.1239 13.6985 18.6565C13.8076 18.4126 13.8621 18.2704 13.8621 18.2297C13.4938 18.1281 13.4632 18.0062 13.3097 17.4778C13.3097 17.4778 12.9823 17.1932 12.6856 16.4413C12.5322 16.0552 12.5833 15.9231 12.6345 15.8214C12.655 15.8011 12.6652 15.7808 12.6754 15.7605C12.6754 15.73 12.6754 15.6792 12.6754 15.6487C12.5424 15.6589 12.481 15.5369 12.3787 15.4963C12.348 15.5166 12.3174 15.5369 12.2867 15.5572C12.2457 15.5369 12.1127 15.4759 11.9388 15.7401C11.9388 15.7808 11.9388 15.8214 11.9491 15.8621V15.8824C11.9593 15.9942 11.8774 16.1263 11.9081 16.2381C11.9184 16.3092 12.0002 16.299 12.0309 16.3498C12.0923 16.5734 12.123 16.6852 12.1844 16.9087C12.1844 16.9087 12.256 17.1424 12.3071 17.1932H12.3174C12.3787 17.1932 12.3992 17.2237 12.4094 17.244C12.4401 17.3558 12.3174 17.4473 12.348 17.5591C12.3685 17.6912 12.5015 17.7115 12.5424 17.8334C12.614 17.9757 12.6447 18.0468 12.7163 18.1789C12.788 18.2907 12.8391 18.3923 12.7982 18.6565C12.788 18.6971 12.7982 18.7175 12.8289 18.748C12.9107 18.9309 12.9516 19.0223 13.0437 19.2052C13.0642 19.2865 13.0028 19.3475 12.9823 19.4084C12.9312 19.7133 13.146 19.6015 13.1869 19.571C13.3097 19.4999 13.4734 20.1096 13.4632 20.1198C13.4325 20.2214 13.3506 20.2823 13.2892 20.3636C13.2585 20.4043 13.2176 20.4246 13.2074 20.3941C13.1358 20.2925 13.1767 20.1502 13.1256 20.0283C13.0949 19.947 12.9823 19.9572 12.9414 19.8759C12.8903 19.7743 12.8596 19.7133 12.7675 19.632C12.4708 19.3475 12.4401 19.3475 12.4094 19.3373C12.3787 19.3373 12.3583 19.317 12.348 19.317C12.3174 19.256 12.3276 19.2154 12.3992 19.0731C12.4606 18.9613 12.4708 18.9207 12.4606 18.7886C12.4606 18.5244 12.389 18.4838 12.2867 18.4126C12.2048 18.3618 12.1741 18.3313 12.1434 18.2704C12.1434 18.2704 12.1434 18.25 12.1332 18.2297C12.0923 18.1078 11.9593 18.1484 11.8877 18.0875C11.8774 18.0875 11.8774 18.0468 11.8774 18.0265C11.8774 17.9858 11.8468 17.996 11.7956 18.0062C11.6831 18.0265 11.6115 17.8944 11.6115 17.8944C11.6115 17.8944 11.5705 17.742 11.5501 17.6505C11.6012 17.5895 11.6626 17.6505 11.7035 17.5997C11.7445 17.5591 11.724 17.4879 11.7649 17.4473C11.7649 17.4473 11.7854 17.4473 11.7854 17.4371C11.8365 17.4066 11.9081 17.244 11.9081 17.1932C11.9081 17.1831 11.7035 16.7258 11.4989 16.6547C11.4069 16.614 11.325 16.5836 11.3864 16.3397C11.4273 16.1771 11.4069 16.045 11.3659 15.8722C11.3557 15.8519 11.3557 15.8316 11.3557 15.8011C11.0488 14.4598 11.0488 14.47 11.0181 14.4598C11.0079 14.409 10.9669 14.3379 10.9363 14.2972H10.9056C10.9056 14.2972 10.7828 14.2972 10.7419 14.2667C10.7419 14.2261 10.7623 14.1854 10.7623 14.1448C10.6498 14.1041 10.5168 14.1448 10.4043 14.1346C10.394 14.1143 10.3736 14.0838 10.3634 14.0533C10.4759 13.657 10.0974 13.464 10.2508 13.0575C10.3122 13.0474 10.3838 13.0169 10.435 12.9965C10.3804 12.9288 10.3122 12.8712 10.2304 12.8238C10.2099 12.6714 10.3122 12.4885 10.2201 12.3462C10.2201 12.3259 10.2201 12.3259 10.1076 12.021C10.0974 12.0007 10.0871 11.9906 10.0974 11.9601C10.1281 11.8076 10.2406 11.6857 10.2713 11.5434C10.2713 11.513 10.2713 11.513 10.2508 11.4622C10.2099 11.4012 10.1485 11.3301 10.302 11.1167C10.6089 10.6696 10.6191 10.6696 10.701 10.1818C10.7112 10.1005 10.7419 10.0599 10.7623 10.0395C11.1716 9.50099 11.4478 9.0234 11.6012 8.71855C11.6012 8.71855 11.9388 7.97676 11.9184 7.84467C11.9184 7.82434 11.9184 7.79386 11.9388 7.75321C11.9593 7.7024 11.9798 7.69224 12.0002 7.68208C12.0923 7.66176 12.1434 7.72273 12.2253 7.71257H12.2867H12.3276C12.3583 7.71257 12.389 7.73289 12.4197 7.74305C12.4197 7.79386 12.4197 7.7837 12.4197 8.0479C12.4197 8.0479 12.7879 7.52966 12.6959 7.30611C12.6754 7.30611 12.6345 7.29594 12.614 7.28578C12.6243 7.26546 12.6345 7.22481 12.6447 7.19433H12.5527C12.5527 7.19433 12.5527 7.19433 12.522 7.18417C12.522 7.14352 12.522 7.10288 12.522 7.06223C12.4879 7.08255 12.4333 7.09949 12.3583 7.11304C12.3583 7.11304 12.3583 7.15368 12.3583 7.17401C12.406 7.2011 12.4367 7.27901 12.4503 7.40772C12.4503 7.40772 12.4606 7.44837 12.4503 7.47885C12.4503 7.49917 12.4299 7.54998 12.4094 7.56014C12.4094 7.56014 12.4094 7.56014 12.3787 7.56014C12.3583 7.56014 12.3583 7.56014 12.3378 7.5703C11.8161 7.6516 11.8877 7.11304 11.6421 6.90981C11.6763 6.85561 11.6797 6.78448 11.6524 6.69642C11.6251 6.60835 11.6831 6.57109 11.8263 6.58464C11.8263 6.58464 11.857 6.5948 11.8672 6.60496C11.8672 6.63545 11.8774 6.68625 11.9081 6.69642H11.9286C12.0036 6.69642 12.0582 6.68625 12.0923 6.66593C12.0923 6.66593 12.0923 6.62529 12.1025 6.60496C12.0923 6.60496 12.0616 6.60496 12.0514 6.5948H12.0104C12.0104 6.5948 11.9798 6.57448 11.99 6.35093H11.9695C11.9695 6.35093 11.9695 6.31028 12.0616 5.97495C12.0514 5.97495 12.0309 5.97495 12.0104 5.97495C12.0616 5.41607 12.0616 5.41607 12.123 5.36526C12.1434 5.36526 12.1639 5.36526 12.1741 5.36526C12.2662 5.23316 12.2764 5.21284 12.2969 5.15187C12.2969 5.14171 12.2764 5.12138 12.256 5.11122C12.2764 5.07058 12.3071 5.01977 12.3276 4.98928C12.3276 4.97912 12.3174 4.9588 12.3071 4.94864C12.1639 4.94864 12.0821 5.11122 11.9491 5.14171C11.9491 5.14171 11.9491 5.11122 11.9695 5.07058C4.72643 10.1615 0 18.5244 0 27.9949C0 43.4607 12.6243 56 28.1846 56C29.2793 56 30.3637 55.939 31.4277 55.8171C31.9903 55.4513 32.154 55.2785 32.1949 55.2176C32.0585 55.2176 31.9665 55.204 31.9187 55.1769C31.9699 55.0753 31.9699 55.055 32.1438 55.0143C32.1233 54.933 32.2972 54.5164 32.7372 54.3741C32.8292 54.1608 32.7167 53.9372 32.9008 53.7238C33.1975 53.3682 33.709 53.1649 34.0569 52.8194C34.6298 52.2606 35.0288 50.7973 35.0288 50.7973C35.0288 50.7668 35.0288 50.7262 35.039 50.6957C35.6221 50.3502 35.2743 49.6186 35.9393 49.2934C36.2155 48.2366 37.0441 47.2001 36.8293 45.9909" fill="white"/>
<path d="M18.5272 3.44473C18.4658 3.48538 18.4351 3.5057 18.3635 3.54635C18.3533 3.54635 18.343 3.57683 18.4249 3.56667C18.4454 3.56667 18.4863 3.56667 18.517 3.51586C18.6295 3.40409 18.8546 3.3736 19.0387 3.36344C19.141 3.36344 19.2126 3.35328 19.3354 3.31263C19.3661 3.31263 19.3968 3.31263 19.4172 3.30247C19.4172 3.29231 19.4172 3.29231 19.3661 3.28215C19.3661 3.28215 19.1615 3.27199 19.0387 3.32279C19.0183 3.32279 19.008 3.32279 19.008 3.28215C19.008 3.2415 18.8955 3.26183 18.8955 3.26183C18.8648 3.26183 18.8239 3.29231 18.8136 3.30247C18.7727 3.32279 18.7523 3.34312 18.6704 3.38376C18.6022 3.41763 18.5545 3.43457 18.5272 3.43457C18.5272 3.43457 18.4965 3.43457 18.4863 3.44473" fill="white"/>
<path d="M52.4716 41.6215H49.3411C49.2285 42.0178 49.116 42.4242 48.9625 42.9526C48.9216 43.1559 48.1646 44.7309 48.1543 44.7411C48.1134 44.802 48.052 44.863 48.0111 44.9037C47.827 45.0764 47.7247 45.3711 47.4791 45.4625C46.9369 45.6454 46.9267 45.6658 46.8551 45.869C46.8346 45.8893 46.2106 46.2246 45.5865 46.9563C44.9727 47.6777 44.5737 48.5313 43.9804 49.2528C42.1184 51.4883 41.7297 51.5594 40.4816 51.9761C40.3384 51.9015 40.2088 51.8812 40.0928 51.9151C40.0928 51.9151 39.9905 51.8541 39.9496 51.8135C39.9189 51.8643 39.8678 51.9252 39.8371 51.9862C39.8473 52.0065 39.8678 52.0472 39.878 52.0675C40.0314 52.0878 40.0314 52.0878 39.9087 52.4943C39.9598 52.5045 40.0212 52.5451 40.0724 52.5654C39.8984 52.8804 38.5583 53.8051 37.4943 53.7137C37.2181 53.8763 37.2999 54.1811 36.993 54.3335C36.635 54.5164 36.2667 54.2827 35.9086 54.4859C35.9086 54.4859 35.7961 54.5977 35.7654 54.801C35.8609 54.8077 35.987 54.7976 36.1439 54.7705H36.1848C36.1848 54.7705 36.1541 54.8213 36.0825 54.8822C43.2642 52.8093 49.249 47.9623 52.8194 41.6012C52.7069 41.6012 52.5943 41.6215 52.4818 41.6215" fill="white"/>
<path d="M29.883 8.95227C30.2922 8.87097 30.7525 9.01323 31.1208 8.76936C31.1004 8.67452 31.0254 8.59323 30.8958 8.52548C30.7525 8.55597 30.7116 8.56613 30.6707 8.66774C30.3433 8.53564 29.8011 8.73887 29.8011 8.73887C29.7704 8.73887 29.7193 8.73887 29.7193 8.7592C29.6647 8.78629 29.5999 8.8642 29.5249 8.99291C29.6818 8.99291 29.7909 8.97936 29.8523 8.95227C29.8523 8.95227 29.8727 8.95226 29.8932 8.9421" fill="white"/>
<path d="M25.1872 6.90981C25.1872 6.90981 25.1769 6.90981 25.1667 6.90981C25.1462 6.90981 25.1155 6.90981 25.0746 6.93013C25.0337 6.95046 25.0337 6.96062 25.0337 6.97078C25.0337 7.02159 24.87 7.10288 24.8189 7.1232C24.6859 7.18417 24.5324 7.18417 24.4097 7.24514C24.4097 7.24514 23.7651 7.59063 23.7651 7.63128C23.8674 7.67192 23.9902 7.63128 24.0414 7.60079C24.113 7.57031 24.3073 7.50934 24.3483 7.54998C24.3483 7.58047 24.3176 7.61095 24.3073 7.64144C24.5017 7.7837 24.6756 7.58047 24.8598 7.57031C25.0235 7.57031 25.0439 7.54998 25.1053 7.5195C25.2383 7.42805 25.5145 7.23498 25.6578 7.31627C25.4838 7.41788 25.402 7.46869 25.4122 7.53982C25.5043 7.56015 25.5964 7.50934 25.6884 7.53982C25.7805 7.57031 25.8112 7.69224 25.9135 7.70241C25.9135 7.70241 26.067 7.71257 26.2716 7.66176C26.2716 7.66176 26.4762 7.62111 26.4966 7.61095C26.558 7.60079 26.6296 7.63128 26.691 7.63128C26.7626 7.63128 26.8138 7.56015 26.8854 7.54998H26.9059C26.9775 7.54998 26.9365 7.63128 26.9672 7.66176C26.9672 7.66176 27.2025 7.77354 27.2128 7.50934C27.2128 7.50934 27.1002 7.50934 27.0798 7.45853C27.0389 7.40772 27.1207 7.31627 27.0286 7.28579C26.9536 7.25869 26.9434 7.20111 26.9979 7.11304C26.9979 7.11304 26.9979 7.10288 26.9775 7.10288C26.9775 7.10288 26.9775 7.10288 26.957 7.10288C26.8445 7.05207 26.7422 7.1232 26.6296 7.1232C26.4966 7.1232 26.4455 7.06223 26.3739 6.95046C26.3023 6.84884 26.2613 6.79803 26.2204 6.79803C26.2204 6.79803 25.7805 6.76755 25.6578 6.79803C25.4941 6.82852 25.3815 6.95046 25.2178 6.9911C25.2178 6.9911 25.2178 6.97417 25.2178 6.94029" fill="white"/>
<path d="M28.2256 20.5669C28.3484 20.5465 28.2563 20.384 28.3279 20.3128C28.3791 20.262 28.6451 20.0791 28.6451 20.0791C29.1361 19.8251 29.6374 19.7844 29.7295 19.7743C29.7295 19.7743 30.9776 19.8149 31.2641 20.1096C31.305 20.1502 31.3971 20.2417 31.4789 20.2722C31.704 20.3738 31.9495 20.2925 32.1746 20.4144C33.2078 20.9632 33.2078 20.9632 33.2283 20.9733C33.3204 20.9225 33.8217 20.9733 33.791 21.1461C33.791 21.1766 33.7807 21.2172 33.7807 21.2375C33.7807 21.2375 33.8012 21.268 33.8217 21.268C34.0058 21.329 34.1081 21.3595 34.3025 21.4103C34.3025 21.4103 34.4969 21.3798 34.5992 21.5119V21.5424C34.3843 21.6338 34.2922 21.6846 34.0876 21.7862C33.8421 21.8269 33.6068 21.6745 33.3613 21.7354C33.0748 21.7862 32.9418 21.8167 32.6656 21.8675C32.6554 21.8675 32.6452 21.8675 32.6349 21.8675C32.6861 21.6643 33.1158 21.5424 32.9214 21.329C32.9111 21.3087 32.86 21.3087 32.7782 21.329C32.7782 21.329 32.2462 21.3899 32.0723 21.0851C31.8983 20.7701 31.8881 20.7701 31.5505 20.7701C31.4175 20.7701 31.3971 20.7599 31.3459 20.7294C30.9878 20.4856 30.7219 20.4856 30.7219 20.4856C30.4354 20.4551 30.2922 20.4348 29.9955 20.3941C29.975 20.3941 29.9341 20.3535 29.9239 20.3332C29.9443 20.3027 29.975 20.2722 29.9853 20.2315C29.842 20.0791 29.2896 20.0486 29.0338 20.3535C28.9213 20.4957 28.7269 20.3738 28.5939 20.4653C28.5019 20.5262 28.4916 20.6482 28.3996 20.7091C28.3893 20.7091 28.3791 20.7294 28.3689 20.7294C28.2052 20.7294 28.1233 20.7295 27.9597 20.7396C27.9699 20.638 28.1131 20.5974 28.2256 20.5872M33.4534 23.1479C33.4022 23.1479 33.3817 23.1377 33.3613 23.0869C33.3511 23.0564 33.3101 23.0158 33.2897 23.0158C33.2897 23.0158 33.2726 23.0259 33.2385 23.0463C33.1055 23.1784 32.9214 23.1987 32.9214 23.1987H32.9009C32.9009 23.1987 32.9009 23.1987 32.86 23.1784C32.7679 23.1276 32.6554 23.1072 32.5735 23.0463C32.5326 23.0158 32.5326 22.9447 32.4712 22.9345C32.3076 22.9447 32.328 22.843 32.3587 22.8227C32.3587 22.8227 32.3792 22.8126 32.3894 22.8126C32.4201 22.7922 32.461 22.8126 32.5019 22.8126C32.5633 22.8126 32.5838 22.7922 32.5838 22.7821C32.594 22.7719 32.594 22.7617 32.6145 22.7617H32.6349C32.6349 22.7617 32.7168 22.7922 32.7577 22.8024C32.8805 22.8227 33.0135 22.7821 33.1464 22.8227C33.1874 22.843 33.5761 22.9853 33.5352 23.0971C33.5352 23.1174 33.4943 23.1479 33.4636 23.1479M34.7526 22.6805C34.7526 22.6805 35.1004 22.6601 35.2028 22.7211C35.2028 22.7211 35.3357 22.7821 35.4892 22.7719C35.6222 22.7719 35.7245 22.6906 35.8473 22.6601C35.9598 22.6398 36.0519 22.7109 36.1542 22.7008C36.1542 22.7008 36.1746 22.694 36.2156 22.6805V22.6601C36.0928 22.5077 35.8473 22.5382 35.7143 22.3756C35.6631 22.3248 35.6938 22.2638 35.7143 22.2232C35.745 22.1622 35.7552 22.1317 35.5915 21.9793C35.479 21.8879 35.4074 21.9082 35.3869 21.9285C35.3051 21.959 35.2232 21.9082 35.2948 21.8167C35.3562 21.7456 35.4585 21.7354 35.5506 21.7253C35.7245 21.7253 35.8473 21.8879 36.0007 21.9285C36.1746 21.9793 36.2156 21.7862 36.3383 21.7456C36.4509 21.7456 36.5532 21.705 36.6657 21.7253C36.6759 21.7253 36.7066 21.7253 36.7168 21.7253C36.8089 21.7558 36.8908 21.8066 36.9828 21.8472C37.0544 21.8777 37.1261 21.8269 37.1977 21.8472C37.2079 21.8472 37.2181 21.8675 37.2284 21.8777C37.2795 21.9285 37.2897 21.9996 37.3307 22.0606C37.3716 22.1012 37.433 22.1013 37.4739 22.1419C37.5148 22.1927 37.5455 22.1927 37.6478 22.213C38.1389 22.2638 38.1286 22.4671 38.1082 22.528C38.057 22.7008 37.5455 22.6195 37.4841 22.589C37.4739 22.589 37.4125 22.5484 37.3716 22.5687C37.3 22.589 37.2591 22.6703 37.1874 22.7008C37.0851 22.7414 37.0033 22.6398 36.901 22.65C36.8805 22.65 36.8805 22.65 36.6964 22.7109C36.6555 22.7211 36.6555 22.7821 36.635 22.8532C36.6043 22.9853 36.5838 23.1174 36.5122 23.1276C36.4713 23.1276 36.3895 23.0259 36.369 22.9853C36.3076 22.8938 36.2667 22.8329 36.1337 22.8227C36.0723 22.8227 35.9291 22.843 35.8575 22.8532C35.5813 22.904 35.5506 22.8938 35.3664 22.8532C35.2334 22.8227 35.1209 22.8837 34.9981 22.8938C34.8549 22.8938 34.814 22.8532 34.7628 22.7719C34.7322 22.7109 34.7322 22.7008 34.7424 22.6703M37.0135 6.85901C37.0135 6.85901 36.9112 6.83869 36.8805 6.8082C36.8396 6.76755 36.8396 6.72691 36.8601 6.70659C36.9214 6.63546 36.9521 6.60497 37.0135 6.53384C37.0135 6.53384 37.0135 6.52368 37.0135 6.51352C36.9419 6.45255 36.8703 6.47287 36.8396 6.48303C36.7578 6.53384 36.7373 6.48303 36.7271 6.48303V6.47287C36.7475 6.43223 36.8089 6.43223 36.8294 6.39158C36.8498 6.35093 36.8191 6.30013 36.8498 6.26964H36.8805C36.8601 6.05625 36.7475 5.85302 36.7373 5.65995C36.7168 5.32462 36.7885 5.31446 36.8294 5.3043C36.8601 5.3043 36.8908 5.33478 36.9215 5.33478C36.9521 5.33478 36.9624 5.3043 36.9931 5.32462C37.0238 5.33478 37.0442 5.36527 37.0238 5.39575C37.0033 5.41608 36.9624 5.39575 36.9317 5.41608C36.9317 5.41608 36.9317 5.42624 36.9317 5.4364C36.9624 5.46688 37.0238 5.4364 37.0544 5.49737C37.0544 5.49737 37.0442 5.5685 37.0442 5.60914C37.0442 5.64979 37.0749 5.68028 37.0851 5.72092C37.1158 5.9648 37.1158 5.9648 37.1567 6.05625C37.1772 6.05625 37.2284 5.98512 37.2181 5.91399C37.2181 5.87334 37.2488 5.87334 37.2591 5.8835C37.3409 5.91399 37.3716 5.93431 37.4534 5.9648C37.4261 6.01899 37.4261 6.05625 37.4534 6.07657L37.7706 6.19851C37.8422 6.19851 37.7603 6.0969 37.8115 6.08673C37.8115 6.08673 38.0059 6.03593 37.9649 6.13754C37.9854 6.15787 37.9956 6.16803 38.0775 6.17819C38.2616 6.20867 38.3128 6.25948 38.2412 6.34077C38.2207 6.36109 38.2105 6.37126 38.2412 6.39158C38.3128 6.45255 38.3435 6.49319 38.4151 6.55416C38.6095 6.38142 38.6197 6.56432 38.6197 6.57449C38.6197 6.60497 38.5788 6.59481 38.5685 6.62529C38.5685 6.65578 38.589 6.69642 38.5685 6.72691C38.5685 6.76756 38.6299 6.79804 38.6095 6.83869C38.6299 6.89965 38.6708 6.90982 38.6913 6.90982C38.722 6.90982 38.722 6.90982 38.7118 6.85901C38.6913 6.78788 38.7527 6.70659 38.7527 6.69642C38.8755 6.74723 38.7527 6.87933 38.8857 6.9403C38.9061 6.89965 38.8652 6.84885 38.8755 6.8082C38.9061 6.8082 38.9368 6.82852 38.988 6.91998C39.0084 6.96062 39.1414 7.32644 39.1414 7.3366C39.1414 7.34676 39.1414 7.37724 39.0801 7.34676C39.0801 7.34676 39.0698 7.34676 39.0596 7.34676C39.0289 7.32644 38.9982 7.34676 38.9573 7.32644C38.9573 7.32644 38.9368 7.29595 38.9266 7.26547C38.9164 7.23498 38.8959 7.2045 38.8857 7.19434C38.8448 7.14353 38.8345 7.18418 38.8141 7.21466C38.7834 7.28579 38.7425 7.21466 38.7322 7.17402C38.6708 6.95046 38.6504 6.87933 38.5174 6.83869C38.4765 6.88949 38.5583 6.98095 38.4765 7.01143C38.4458 7.00127 38.4151 6.99111 38.4049 7.00127C38.3742 7.03175 38.4049 7.0724 38.3742 7.09272C38.3742 7.09272 38.4151 7.14353 38.4049 7.17402C38.3946 7.17402 38.323 7.15369 38.2719 7.12321C38.2719 7.12321 38.2855 7.10627 38.3128 7.0724C38.3128 7.0724 38.2923 7.03175 38.3025 7.01143C38.3128 6.98095 38.4049 6.99111 38.3742 6.9403C38.3537 6.90982 38.2207 6.85901 38.2002 6.87933C38.2105 6.99111 38.2207 7.02159 38.0672 6.91998C38.0263 6.88949 37.9956 6.86917 37.9752 6.86917C37.9343 6.86917 37.924 6.90982 37.8831 6.91998C37.8217 6.91998 37.791 6.91998 37.7399 6.93014C37.5967 6.93014 37.4637 6.84885 37.3204 6.84885C37.2284 6.84885 37.1465 6.90982 37.0442 6.89965M36.3588 7.51951C36.3588 7.51951 36.3076 7.51951 36.2769 7.48902C36.236 7.45854 36.2156 7.45854 36.1849 7.45854C36.1849 7.45854 36.1746 7.45854 36.1542 7.45854C36.0928 7.45854 36.0314 7.44838 35.97 7.43821C35.9393 7.43821 35.9189 7.43821 35.8882 7.43821C35.878 7.43821 35.8575 7.43821 35.837 7.42805C35.8166 7.40773 35.7654 7.32644 35.8677 7.30611C35.97 7.30611 36.0519 7.36708 36.1542 7.35692C36.2053 7.35692 36.2462 7.3366 36.2974 7.34676H36.3179C36.3179 7.34676 36.3588 7.34676 36.3588 7.36708C36.3588 7.36708 36.3588 7.38741 36.3588 7.39757C36.3588 7.43821 36.4202 7.48902 36.3588 7.51951ZM35.7654 6.32045C35.7654 6.32045 35.745 6.32045 35.7347 6.32045C35.7347 6.32045 35.7347 6.32045 35.7245 6.32045C35.6529 6.32045 35.571 6.30013 35.4892 6.30013C35.4585 6.30013 35.4278 6.32045 35.3971 6.30013C35.3562 6.30013 35.3255 6.2798 35.2846 6.2798C35.1516 6.2798 35.1516 6.2798 35.1107 6.25948C35.0493 6.23916 34.9981 6.19851 34.947 6.17819C34.8549 6.15787 34.7628 6.1477 34.6708 6.11722C34.6708 6.11722 34.6605 6.11722 34.6605 6.10706C34.6708 6.08674 34.7015 6.08674 34.7628 6.07657C35.213 6.05625 35.7245 6.25948 35.7757 6.32045H35.7654ZM35.6938 7.39757C35.6938 7.39757 35.6631 7.37724 35.6427 7.35692C35.612 7.31628 35.6017 7.31628 35.5506 7.31628C35.4994 7.31628 35.479 7.31628 35.4585 7.29595C35.4585 7.29595 35.4585 7.27563 35.4585 7.26547C35.4585 7.26547 35.479 7.23498 35.479 7.22482C35.4892 7.2045 35.479 7.18418 35.4994 7.16385C35.4994 7.16385 35.5199 7.16385 35.5301 7.17402C35.5608 7.19434 35.571 7.21466 35.5813 7.24515V7.25531C35.5813 7.25531 35.5915 7.25531 35.612 7.25531C35.6529 7.25531 35.6836 7.27563 35.6938 7.28579C35.6938 7.28579 35.7143 7.29595 35.7143 7.30611C35.7347 7.34676 35.7143 7.38741 35.6631 7.36708M36.1644 6.81836H36.1746C36.1746 6.81836 36.2053 6.82852 36.2156 6.83869C36.2462 6.88949 36.1951 7.00127 36.1439 6.98095C36.1133 6.97079 36.103 6.9403 36.1133 6.88949C36.1133 6.83869 36.1542 6.81836 36.1644 6.8082M27.6118 1.07712C27.6118 1.07712 27.6323 0.995826 27.6732 0.985664C27.7244 0.985664 27.755 0.985664 27.8062 0.975503H27.8267C27.888 0.985664 27.929 0.995826 27.9903 1.00599C28.021 1.00599 28.021 1.02631 28.021 1.02631C28.021 1.02631 28.021 1.03986 28.021 1.06696C28.021 1.06696 28.0517 1.1076 28.0517 1.12793C28.0517 1.13809 28.0517 1.15841 28.0006 1.16857C27.9392 1.19906 27.7244 1.20922 27.663 1.16857C27.6425 1.16857 27.6118 1.12793 27.6118 1.07712ZM28.154 1.00599H28.1643C28.1847 1.00599 28.2052 1.00599 28.2359 1.00599C28.2836 1.00599 28.3109 1.00599 28.3177 1.00599C28.3177 1.00599 28.3484 1.00599 28.3484 1.02631C28.3484 1.02631 28.3484 1.03647 28.3382 1.03647C28.3177 1.03647 28.2256 1.05679 28.2256 1.05679C28.2052 1.05679 28.1745 1.05679 28.154 1.05679C28.1029 1.03647 28.1029 1.00599 28.154 1.00599ZM27.131 2.08311C27.0082 2.08311 26.9162 2.02214 26.8036 2.02214C26.8036 2.02214 26.7798 2.0052 26.732 1.97133C26.6297 1.97133 26.6092 1.97133 26.6195 1.92052C26.6195 1.92052 26.5683 1.92052 26.5376 1.92052H26.4456C26.4456 1.92052 26.4353 1.92052 26.4251 1.92052C26.3944 1.94084 26.4046 1.95101 26.4251 1.97133C26.4251 1.98149 26.4456 2.00181 26.4251 2.00181C26.3842 2.01198 26.333 2.00181 26.2921 2.01198C26.2103 2.0323 26.2103 2.10343 26.1489 2.13391C26.1387 2.13391 26.108 2.15424 26.067 2.15424C25.9852 2.15424 25.9852 2.12375 25.975 2.09327C25.975 2.0323 25.9545 1.99165 25.8317 2.01198C25.801 2.01198 25.8011 2.01198 25.7806 2.02214C25.7294 2.06278 25.5351 2.05262 25.5351 2.05262C25.4941 2.04246 25.576 1.97133 25.6374 1.96117C25.6783 1.95101 25.7192 1.95101 25.7499 1.93068C25.7499 1.93068 25.7704 1.9002 25.7499 1.87988C25.7192 1.85955 25.7192 1.83923 25.7192 1.82907C25.7192 1.78842 25.7704 1.7681 25.7806 1.73761C25.7908 1.67665 25.7806 1.60552 25.7908 1.54455C25.7908 1.54455 25.801 1.53438 25.8215 1.53438C25.9852 1.54455 25.9852 1.54455 25.9647 1.57503C25.9238 1.61568 26.067 1.66648 26.0773 1.66648C26.0977 1.66648 26.108 1.66648 26.108 1.64616C26.1387 1.59535 26.2 1.636 26.2103 1.64616C26.2512 1.67665 26.3842 1.68681 26.3842 1.68681C26.3842 1.68681 26.4558 1.71052 26.599 1.75794C26.6502 1.77826 26.7116 1.7681 26.7729 1.77826C26.8241 1.78842 26.8855 1.84939 26.8855 1.84939C26.9059 1.87988 26.8343 1.92052 26.8855 1.94084C26.9673 1.97133 27.0287 1.91036 27.1003 1.93068C27.131 1.93068 27.1617 1.94084 27.1924 1.93068C27.1924 1.93068 27.2947 1.95101 27.2947 1.97133C27.2947 1.99165 27.1515 2.05262 27.1515 2.05262M27.0798 0.812919C27.0798 0.812919 27.1208 0.782434 27.1208 0.772273C27.1208 0.772273 27.1208 0.762111 27.1412 0.762111C27.1719 0.762111 27.1821 0.782434 27.1821 0.792596C27.1821 0.802757 27.131 0.863726 27.0901 0.863726C27.0901 0.863726 26.9878 0.843403 26.998 0.833242C26.998 0.833242 27.0492 0.82308 27.0798 0.82308M19.7651 20.5059C19.7754 20.7803 19.7856 21.3188 20.9416 22.8329C21.2963 22.8329 21.5282 22.9142 21.6373 23.0768C21.8726 23.4731 22.292 22.9447 22.6092 22.9955C22.6706 22.9955 22.7524 23.0463 22.8138 23.0768C22.8036 23.0463 22.7729 23.0056 22.7729 22.9751C22.9263 22.7922 23.1821 22.6703 23.4992 23.0463C23.6731 22.965 23.6936 22.9548 23.8573 22.8329C23.8471 22.8024 23.8164 22.7719 23.7959 22.7414C23.888 22.5077 24.1335 22.3959 24.246 22.1927C24.42 21.8879 24.2665 21.4509 24.645 21.2172C25.1361 20.9022 26.0057 20.953 26.5786 20.9835C26.6058 21.0445 26.4763 21.4408 26.1898 22.1724C26.1898 22.1724 26.2307 22.2435 26.2512 22.274C26.2205 22.2943 26.1898 22.335 26.1591 22.3654C26.1591 22.4806 26.0773 22.6297 25.9136 22.8126C25.9409 23.5306 25.8181 24.1132 25.5453 24.5603C25.5453 24.5603 25.576 24.6416 25.5862 24.6721C25.842 24.7534 28.553 24.6213 28.5837 24.6213L28.6656 24.6518C28.7474 24.7534 28.7576 24.7737 28.8292 24.9668C29.1498 25.1091 29.3135 25.3733 29.3203 25.7594C28.8804 26.1862 29.1464 26.7451 29.0441 27.243C29.0441 27.243 29.0441 27.2531 29.0952 27.3243C28.9213 28.2693 29.9955 28.5132 30.1899 29.2549C30.2615 29.2854 30.2717 29.2854 30.5275 29.2549C30.7628 29.7833 31.2538 28.8485 31.6937 28.8688H31.7551C32.0211 28.818 32.062 28.818 32.2359 28.7977H32.2973C32.7884 28.7977 32.9623 29.4277 33.4636 29.387C33.9444 29.3667 34.1081 28.879 34.4764 28.6757C34.3946 28.0152 34.6298 27.812 34.814 27.6494C35.0288 27.4564 35.0493 27.4462 35.8575 27.3751C36.3792 27.3243 36.4406 26.7146 36.8294 26.5215C36.8601 26.5215 36.9112 26.5215 36.9419 26.5215C37.3511 26.6638 37.167 26.8263 36.7168 27.1922C36.7066 27.6596 36.7066 27.9035 36.6964 28.3709C36.7066 28.4928 36.7987 28.6249 36.9521 28.7672C37.4739 28.6351 37.1977 28.2185 37.0442 27.9949C36.7578 27.5783 37.2897 27.3751 37.699 27.2125C37.7501 27.0296 37.6069 26.867 37.6683 26.6841C37.699 26.6739 37.7501 26.6434 37.7808 26.6333C37.8831 26.7654 37.8626 26.9788 38.0263 27.0804C38.2412 27.2226 38.5072 27.0397 38.7015 27.243C38.8345 27.3751 38.722 27.5986 38.8652 27.7307C38.8959 27.7612 38.9471 27.7612 38.988 27.7714C38.9982 27.7714 40.5839 27.7917 41.1364 27.4056C41.4535 27.497 41.7195 27.0397 42.0571 27.3243C42.0059 27.3751 41.965 27.4767 41.965 27.5478C42.2003 27.7409 42.5891 27.6698 42.6914 28.0864C42.364 28.2185 42.364 28.2185 42.3026 28.3709C42.8039 28.503 42.8039 28.503 42.8346 28.5538C43.6326 28.6351 43.8167 29.6208 44.4305 29.9154C44.7579 30.0679 45.0853 29.9561 45.4126 29.8646L51.1928 17.681C51.6634 16.6953 52.4409 15.8621 53.3719 15.2727C49.7708 8.26129 43.3052 2.94683 35.4892 0.894211H35.4483C35.4483 0.894211 35.5301 0.945018 35.571 0.965341C35.5608 0.965341 35.5404 0.965341 35.5301 0.975503C35.4278 0.945018 35.3664 0.884049 35.2846 0.833242C35.2846 0.833242 35.2744 0.833242 35.2641 0.833242C35.2437 0.833242 35.2437 0.833242 35.2232 0.843403C35.2641 0.884049 35.3664 0.945018 35.4278 0.975503C35.3357 0.975503 35.3357 0.975503 35.2846 1.00599C35.3255 1.04663 35.3869 1.08728 35.4074 1.13809C35.3767 1.13809 35.3357 1.13809 35.3153 1.13809C35.3971 1.22954 35.5608 1.22954 35.6733 1.28035C35.6733 1.28035 35.6529 1.30067 35.6529 1.31083C35.6222 1.31083 35.5813 1.31083 35.5506 1.31083C35.7347 1.43277 35.9598 1.51406 36.1337 1.64616C36.1133 1.64616 36.103 1.66648 36.0928 1.66648C36.0723 1.66648 36.0621 1.65632 36.0416 1.65632C36.0212 1.65632 36.0109 1.65632 36.0007 1.66648C36.0689 1.72745 36.1064 1.76471 36.1133 1.77826C36.2565 1.79858 36.4099 1.82907 36.635 2.07294C36.6043 2.07294 36.5532 2.05262 36.5327 2.04246C36.6248 2.11359 36.7271 2.17456 36.8191 2.25585C36.8191 2.25585 36.7987 2.26601 36.7885 2.27617C36.9624 2.40827 36.9624 2.41844 36.9624 2.45908C36.901 2.45908 36.9112 2.41844 36.3485 2.23553C36.3485 2.23553 36.3281 2.25585 36.3076 2.26601C36.2053 2.23553 36.1133 2.18472 36.011 2.15424C36.011 2.17456 35.9905 2.20504 36.011 2.23553C35.9359 2.22875 35.8814 2.22875 35.8473 2.23553C35.8473 2.23553 35.8473 2.25585 35.8575 2.27617C35.1516 2.25585 34.7424 1.69697 34.057 1.66648C33.9546 1.57842 33.8933 1.51406 33.8728 1.47342C33.8728 1.47342 33.924 1.43277 33.9444 1.42261C33.9649 1.42261 33.9853 1.43277 34.0058 1.44293C33.9444 1.41583 33.8933 1.40229 33.8523 1.40229C33.8523 1.40229 33.8421 1.43277 33.8319 1.44293C33.8012 1.44293 33.7603 1.44293 33.7193 1.43277C33.7193 1.47342 33.7193 1.47342 33.7807 1.54455C33.6375 1.54455 32.7577 1.15841 32.6759 1.07712C32.6759 1.06696 32.6759 1.04663 32.6861 1.03647C32.6042 0.995826 32.4917 1.02631 32.4099 0.975503C32.2769 0.894211 32.2155 0.762111 32.103 0.670658C32.1848 0.660496 32.2769 0.670658 32.3587 0.660496C31.5812 0.223552 31.4789 0.233714 31.438 0.233714C31.363 0.233714 31.2845 0.220165 31.2027 0.193068C31.2027 0.193068 31.2027 0.213391 31.2027 0.223552C31.172 0.223552 31.1311 0.223552 31.1004 0.203229C31.1004 0.162583 31.1004 0.152422 30.906 0.111776C30.8651 0.111776 30.8344 0.111776 30.8037 0.101614C30.8242 0.111776 30.8548 0.121937 30.8753 0.14226C30.8753 0.152422 30.8855 0.193068 30.906 0.203229C30.7423 0.27436 30.6502 0.172745 30.5479 0.0812911C29.8011 0.0203221 29.0441 -0.0101624 28.2768 -0.0101624C27.6834 -0.0101624 27.1003 0.0101606 26.5172 0.0406451C26.732 0.0711296 26.9571 0.0609681 27.1515 0.121937V0.14226C26.9366 0.121937 26.7013 0.213391 26.4967 0.111776H26.466H26.4353C26.4353 0.111776 26.4251 0.132099 26.4149 0.132099C26.4251 0.162583 26.4763 0.172745 26.5069 0.193068C26.4865 0.213391 26.4865 0.213391 26.3944 0.264198C26.4046 0.264198 26.4353 0.264198 26.4558 0.284521C26.4865 0.325167 26.4865 0.325167 26.5172 0.335328C26.5274 0.335328 26.5581 0.315005 26.5786 0.304844C26.5888 0.294683 26.599 0.274359 26.6092 0.264198C26.6092 0.264198 26.6433 0.267585 26.7116 0.27436C26.7116 0.27436 26.7627 0.243875 26.8241 0.284521C26.8241 0.284521 26.8139 0.294683 26.8036 0.304844C26.8036 0.304844 26.8139 0.304844 26.8241 0.325167C26.9059 0.325167 26.9503 0.325167 26.9571 0.325167C26.9571 0.325167 26.9366 0.27436 26.8752 0.223552C26.8752 0.223552 26.9127 0.210003 26.9878 0.182906H26.998C26.998 0.182906 27.4993 0.172745 27.4481 0.27436C27.4481 0.27436 27.414 0.27436 27.3458 0.27436C27.3458 0.27436 27.3663 0.294682 27.4379 0.325167C27.5811 0.264198 27.6016 0.254037 27.6732 0.325167C27.6732 0.325167 27.6527 0.325167 27.6425 0.335328C27.7653 0.335328 27.8676 0.396297 27.9801 0.426782C28.0108 0.406459 28.0108 0.365813 28.0517 0.34549C28.2563 0.365813 28.2666 0.396297 28.2768 0.41662C28.2563 0.41662 28.2256 0.41662 28.195 0.436943C28.1745 0.477589 28.1643 0.477589 28.1233 0.477589C28.1336 0.497912 28.195 0.538558 28.3177 0.54872C28.3177 0.538558 28.2973 0.518235 28.2768 0.508074C28.2768 0.508074 28.2768 0.497912 28.2768 0.487751C28.3279 0.487751 28.3791 0.457266 28.4405 0.447105C28.4405 0.447105 28.4609 0.457266 28.4609 0.467428C28.4303 0.487751 28.3996 0.497912 28.3689 0.518235C28.3893 0.528397 28.4303 0.558881 28.4916 0.589366C28.4916 0.569043 28.4916 0.538558 28.4916 0.518235C28.5121 0.518235 28.5428 0.508074 28.5632 0.497912C28.6758 0.528397 28.7883 0.467428 28.9008 0.518235C28.9008 0.518235 28.8531 0.541946 28.7576 0.589366C28.7576 0.589366 28.7576 0.61985 28.7679 0.640173C28.7883 0.640173 28.8088 0.640173 28.8292 0.640173C28.8292 0.640173 28.8906 0.636786 29.0134 0.630012C29.0134 0.630012 29.0236 0.589366 29.0543 0.558881C29.0543 0.558881 29.2589 0.61985 29.2896 0.640173C29.2282 0.660496 29.1668 0.640173 29.1055 0.660496C29.1361 0.680819 29.1873 0.701142 29.218 0.721465C29.2078 0.721465 29.1873 0.731627 29.1771 0.731627C29.1771 0.762111 29.3408 0.853565 29.5044 0.914534C29.6272 0.965341 29.7602 0.945018 29.8932 0.985664C30.016 1.01615 30.1387 0.985664 30.2717 0.985664C30.4252 0.985664 30.5377 1.07712 30.6809 1.09744C30.6809 1.09744 30.6912 1.1076 30.7014 1.11776C30.7014 1.12793 30.7014 1.15841 30.7014 1.16857C30.8651 1.19906 31.039 1.07712 31.2027 1.19906C31.1924 1.19906 31.1822 1.19906 31.172 1.19906C31.172 1.20922 31.172 1.2397 31.172 1.2397C31.172 1.2397 31.1174 1.23293 31.0083 1.21938C31.0288 1.28035 31.1515 1.29051 31.1413 1.36164C31.0595 1.38874 31.0117 1.40229 30.9981 1.40229C31.0288 1.47342 31.1413 1.51406 31.1924 1.57503C30.8105 1.47342 30.6093 1.41245 30.5889 1.39212C30.5889 1.39212 30.5991 1.38196 30.5991 1.3718C30.5991 1.3718 30.5889 1.36164 30.5786 1.36164C30.507 1.39212 30.507 1.38196 30.108 1.2397C30.0603 1.28035 30.033 1.30406 30.0262 1.31083C30.0262 1.31083 29.975 1.31083 29.9648 1.31083C29.9648 1.31083 29.9955 1.33793 30.0569 1.39212C30.0569 1.39212 30.0466 1.42261 30.0364 1.44293C31.3357 1.93068 31.3459 1.94084 31.3766 1.97133C31.3766 1.97133 31.3425 1.96455 31.2743 1.95101C31.2743 1.95101 31.2538 1.96117 31.2538 1.97133C31.2538 1.97133 31.2948 1.99843 31.3766 2.05262C31.3766 2.05262 31.3357 2.06278 31.3152 2.06278C31.3152 2.06278 31.305 2.07294 31.2948 2.08311C31.2948 2.08311 30.9572 2.06278 30.8958 2.00181C30.7321 2.00181 30.64 1.86971 30.4763 1.9002C30.4763 1.9002 30.4763 1.92052 30.4661 1.92052C30.3945 1.92052 30.3229 1.91036 30.2513 1.9002V1.92052C30.5991 2.05262 31.0083 2.09327 31.3152 2.2965V2.31682C31.3152 2.31682 30.64 2.25585 30.6298 2.25585C30.5172 2.23553 30.4456 2.14407 30.3229 2.13391C30.2206 2.12375 30.1183 2.14407 30.016 2.13391C30.016 2.13391 29.9955 2.13391 29.9955 2.14407C29.9955 2.14407 29.9546 2.11698 29.8727 2.06278C29.7909 2.00859 29.7056 1.98827 29.617 2.00181C29.617 2.00181 29.6374 2.00181 29.6477 1.99165H29.6681C29.6681 1.99165 29.6988 1.99165 29.709 1.99165C29.6579 1.89004 29.5147 1.93068 29.4226 1.9002H29.3919C29.3919 1.9002 29.0645 1.79858 29.0441 1.75794C29.0441 1.74778 28.9929 1.74778 28.9725 1.75794C28.9315 1.77149 28.8497 1.7681 28.7269 1.74778C28.7269 1.74778 28.7065 1.74778 28.6962 1.75794C28.6962 1.7681 28.7065 1.78842 28.7065 1.80875C28.7065 1.80875 28.686 1.80875 28.6758 1.80875C28.6042 1.80875 28.553 1.7681 28.4814 1.77826C28.3689 1.79858 28.287 1.86971 28.1745 1.85955C28.021 1.84939 27.8062 1.82907 27.8778 1.71729C27.9392 1.64277 28.1029 1.62245 28.3689 1.65632C28.3689 1.65632 28.4098 1.62584 28.42 1.61568C28.5735 1.62584 28.6962 1.53438 28.8599 1.56487C28.819 1.46325 28.6758 1.48358 28.5837 1.43277C28.6144 1.34132 28.7781 1.31083 28.7883 1.20922C28.8088 1.20922 28.8395 1.19906 28.8599 1.18889C28.8088 1.1076 28.4712 0.95518 28.4712 0.95518H28.4507C28.4098 0.95518 28.3586 0.93147 28.2973 0.884049C28.2973 0.884049 28.2768 0.904372 28.1438 0.924695C28.1438 0.934857 28.1233 0.945018 28.1131 0.965341C28.0824 0.965341 28.0006 0.95518 28.0006 0.894211H28.0722C28.0722 0.894211 27.0594 0.589366 26.9468 0.599527C26.998 0.630012 27.0594 0.640173 27.1105 0.670658C27.1105 0.670658 27.1003 0.680819 27.0901 0.690981C26.9059 0.731627 26.732 0.589366 26.5376 0.680819C26.4967 0.680819 26.4558 0.670658 26.4149 0.660496V0.680819C26.4149 0.680819 26.4353 0.680819 26.4456 0.690981C26.4456 0.690981 26.4353 0.711304 26.4251 0.711304C26.1489 0.660496 25.8522 0.762111 25.5862 0.660496C25.5862 0.650335 25.5862 0.630012 25.5658 0.61985C25.4123 0.690981 25.1361 0.660496 25.0031 0.558881C25.0031 0.558881 25.0133 0.54872 25.0235 0.538558H25.8727C25.8727 0.538558 25.9136 0.426782 25.8727 0.396297C25.8522 0.396297 25.8317 0.41662 25.8113 0.41662C25.7499 0.41662 25.709 0.375974 25.6476 0.355651C25.6578 0.355651 25.6681 0.355651 25.6783 0.355651C25.6783 0.355651 25.6885 0.335328 25.6885 0.325167C25.7192 0.325167 25.7499 0.325167 25.8215 0.325167C25.8215 0.325167 25.801 0.294683 25.801 0.284521C25.6715 0.250649 25.6203 0.220165 25.6476 0.193068C25.6476 0.193068 25.6987 0.193068 25.7192 0.193068C25.7192 0.182906 25.7192 0.152422 25.7192 0.14226C25.7192 0.14226 25.7192 0.14226 25.7294 0.121937C25.6578 0.121937 25.5862 0.14226 25.5248 0.14226C25.5248 0.14226 25.5248 0.14226 25.5146 0.152422C25.4737 0.193068 25.4634 0.193068 25.443 0.193068H25.4328C25.4328 0.213391 25.443 0.223552 25.443 0.223552C25.4634 0.223552 25.4941 0.233714 25.5146 0.243875C25.5453 0.254037 25.5146 0.284521 25.4941 0.304844C25.4941 0.304844 25.4941 0.308231 25.4941 0.315005C25.4941 0.315005 25.5453 0.396297 25.6578 0.406459C25.6578 0.406459 25.8522 0.447105 25.842 0.457266C25.842 0.457266 25.8215 0.477589 25.709 0.477589C25.6169 0.477589 25.5351 0.518235 25.4532 0.518235C25.3918 0.518235 25.3509 0.497912 25.3202 0.477589C25.3202 0.477589 25.2827 0.477589 25.2077 0.477589L24.9315 0.457266C24.8905 0.457266 24.8905 0.436943 24.8905 0.436943C24.8905 0.426782 24.9212 0.406459 24.911 0.386136C24.911 0.365813 24.8701 0.375974 24.8701 0.355651C24.8701 0.355651 24.8701 0.34549 24.8803 0.335328C24.8905 0.335328 24.9212 0.335328 24.9212 0.315005C24.9212 0.274359 24.9212 0.264198 24.9417 0.243875C24.9519 0.243875 24.9826 0.243875 24.9929 0.223552C24.9929 0.223552 25.0133 0.203229 25.0133 0.193068C24.7371 0.223552 24.4609 0.264198 24.1949 0.304844C24.154 0.325167 24.113 0.355651 24.0823 0.386136C24.246 0.467428 24.3586 0.589366 24.5018 0.680819C24.4506 0.711304 24.3995 0.75195 24.3688 0.792596C24.4813 0.833242 24.6348 0.792596 24.7371 0.863726C24.7064 0.873888 24.6757 0.894211 24.645 0.904372C24.7166 0.95518 24.7576 1.01615 24.8394 1.06696C24.9349 0.951792 24.9997 0.884049 25.0338 0.863726C25.2895 0.945018 25.2998 1.00599 25.31 1.07712C25.2793 1.07712 25.2384 1.07712 25.2077 1.07712C25.2281 1.11776 25.2793 1.21938 25.5248 1.29051C25.576 1.26002 25.6271 1.21938 25.6578 1.17873C25.6374 1.16857 25.5964 1.14825 25.576 1.13809C25.5964 1.11776 25.6271 1.09744 25.6476 1.08728C25.6783 1.09744 25.709 1.1076 25.7397 1.11776C25.7806 1.08728 25.8113 1.02631 25.8113 0.985664C25.8317 0.975503 25.8829 0.95518 25.9034 0.945018C25.9034 0.924695 25.9238 0.894211 25.934 0.863726H25.8829C25.8829 0.863726 25.8317 0.82308 25.8113 0.812919C25.8113 0.792596 25.8215 0.762111 25.8317 0.741788C26.0977 0.762111 26.3433 0.863726 26.6195 0.843403C26.6502 0.873888 26.6809 0.934857 26.6911 0.975503C26.6297 0.985664 26.5581 1.02631 26.5069 1.05679C26.6706 1.12454 26.7729 1.18551 26.8139 1.2397C26.732 1.31083 26.6706 1.36164 26.4558 1.43277C26.2034 1.36503 26.0704 1.33115 26.0568 1.33115C26.1728 1.3718 26.2614 1.41583 26.3228 1.46325C25.9545 1.41583 25.7124 1.40229 25.5964 1.42261C25.6783 1.46325 25.7806 1.47342 25.8727 1.53438C25.6987 1.61568 25.6783 1.79858 25.4532 1.85955C25.4328 1.9002 25.3918 1.95101 25.3407 1.99165C25.0338 2.00181 24.7473 2.12375 24.4302 2.10343C24.4813 2.12375 24.5632 2.14407 24.6246 2.15424C24.645 2.18472 24.6552 2.20504 24.6655 2.23553C24.3279 2.37779 24.0005 2.53021 23.6527 2.67247C23.356 3.36345 23.356 3.37362 23.4378 3.44475C23.5333 3.4312 23.639 3.42781 23.755 3.43458C23.755 3.43458 23.888 3.65814 24.0005 3.85121C23.9596 3.90201 23.8982 3.95282 23.8471 3.99347C25.1258 3.65814 26.0977 4.49138 27.3151 4.45073H27.3561C27.8164 4.5117 27.7244 5.13155 27.7244 5.14172C27.7244 5.14172 28.5019 5.82254 28.8599 5.77173C28.8804 5.72092 28.952 5.65995 29.0032 5.62947C29.0236 5.64979 29.0645 5.67011 29.0952 5.69044C29.0952 5.69044 29.0952 5.69044 29.0952 5.7006C29.1157 5.7006 29.1361 5.72092 29.1566 5.73108C29.1566 5.67011 29.1055 5.61931 29.085 5.5685C29.1975 5.46688 29.1975 5.46688 28.8292 4.84703C28.7985 4.74542 28.7679 4.65396 28.7781 4.54219C28.819 4.53203 28.8804 4.5117 28.9213 4.50154C29.4635 4.28815 29.4124 4.02395 29.4124 4.02395C29.4124 3.99347 29.3612 3.88169 29.2385 3.72927C29.0748 3.52604 28.6553 3.56668 28.5326 3.31265C28.4405 3.1399 28.7167 2.84522 28.3791 2.76393C28.287 2.32698 28.287 2.32698 28.3177 2.31682C28.4405 2.31682 28.5735 2.33714 28.6962 2.33714H28.7679C28.9827 2.38795 29.1975 2.32698 29.4021 2.30666H29.4533C29.9955 2.49973 30.1183 2.62166 30.1183 2.62166C30.108 2.62166 30.0876 2.65215 30.0773 2.66231C30.2308 2.71312 30.2819 2.65215 30.3229 2.6115H30.3638C30.3638 2.6115 30.4047 2.63183 30.4354 2.63183H30.4661C30.4661 2.63183 30.5275 2.6928 30.5582 2.71312C30.5786 2.68263 30.6195 2.65215 30.6502 2.63183C30.6707 2.63183 30.6912 2.64199 30.7116 2.65215C30.7116 2.65215 30.906 3.21103 31.3254 3.19071C31.4891 3.23135 31.6528 3.29232 31.8165 3.33297C31.8472 3.31265 31.8881 3.28216 31.9086 3.272L31.9393 3.25168C32.0006 3.17039 32.103 3.11958 32.1541 3.03829C32.1336 2.97732 32.0825 2.92651 32.0518 2.86554C32.0723 2.84522 32.0927 2.79441 32.0825 2.76393C32.0927 2.76393 32.1132 2.7436 32.1336 2.7436C32.1336 2.7436 32.3792 2.88586 32.9214 3.1399C33.6477 3.48539 33.658 3.48539 33.6784 3.58701C33.8114 3.58701 33.883 3.60733 33.9649 3.75975C33.9444 3.75975 33.924 3.78008 33.9137 3.78008C33.9546 3.87153 34.0979 3.88169 34.1388 3.97314C34.1388 3.97314 34.2002 3.95959 34.3229 3.9325C34.3843 3.97314 35.1516 4.34912 35.3869 4.20686C35.479 4.22718 35.571 4.26783 35.6631 4.28815C35.6631 4.28815 35.6086 4.32541 35.4994 4.39993C35.6427 4.47106 35.8575 4.43041 35.9393 4.60316C35.9598 4.60316 35.9905 4.60316 36.011 4.60316C36.011 4.593 36.011 4.56251 36.011 4.55235C36.0212 4.54219 36.0416 4.52186 36.0621 4.5117C36.3281 4.67429 36.4509 4.74542 36.7168 4.92832C36.7919 5.02994 36.826 5.10446 36.8191 5.15188C36.7168 5.19252 36.7271 5.3043 36.6248 5.35511C36.5566 5.33478 36.4202 5.39575 36.2156 5.53801C36.2156 5.65995 36.0246 5.7785 35.6427 5.89367C35.6427 5.89367 34.548 5.91399 34.4662 5.91399C34.1593 5.91399 33.9615 5.93093 33.8728 5.9648C33.6989 6.04609 33.7807 6.28996 33.5454 6.34077C33.5454 6.34077 33.5454 6.34077 33.5045 6.37126C33.2283 6.66594 33.126 7.04192 32.9111 7.36708C33.3204 7.10288 33.4636 6.65578 33.9137 6.44239C34.1593 6.33061 34.6401 6.229 34.9675 6.4119C34.9572 6.42206 34.947 6.44239 34.9368 6.45255C34.9675 6.46271 35.0288 6.50336 35.0595 6.51352C35.0595 6.53384 35.0595 6.56433 35.0493 6.58465C34.814 6.65578 34.548 6.6761 34.3434 6.8082C34.415 6.8082 34.4866 6.81836 34.548 6.82852C34.6299 6.83869 34.7015 6.88949 34.7731 6.91998C34.8038 6.89965 34.8447 6.85901 34.8754 6.83869C35.1209 6.73707 35.1004 6.91998 35.0902 7.13337C35.1311 7.13337 35.1925 7.13337 35.2437 7.13337C35.2437 7.13337 35.3767 7.48902 35.878 7.43821L35.9189 7.4687C35.9189 7.4687 35.8984 7.50934 35.8984 7.51951C35.9393 7.52967 36.0007 7.53983 36.0519 7.53983C36.0519 7.53983 36.0519 7.53983 36.0723 7.53983C36.0723 7.53983 36.0723 7.53983 36.3588 7.57031C36.369 7.58047 36.3895 7.6008 36.3997 7.62112C36.3792 7.62112 36.3485 7.63128 36.3281 7.64144C36.3281 7.65161 36.3179 7.68209 36.3076 7.70241C36.3486 7.70241 36.3997 7.68209 36.4406 7.68209L36.4713 7.66177C36.6486 7.49918 36.7373 7.32982 36.7373 7.15369C36.7373 7.15369 36.7885 7.15369 36.8089 7.15369C36.8396 7.23498 36.8601 7.31628 36.901 7.38741C36.9419 7.40773 37.0033 7.42805 37.0442 7.43821H37.1056C37.1056 7.43821 37.1772 7.48902 37.2079 7.51951C37.1874 7.51951 37.167 7.51951 37.1465 7.52967L37.0954 7.54999C36.6759 7.83451 36.6657 7.85484 36.5225 7.74306C36.5225 7.75322 36.502 7.7837 36.4918 7.79387C36.5941 7.86161 36.6555 7.91242 36.6759 7.94629C36.5736 8.07839 36.3281 7.9971 36.236 8.14952C36.1644 8.1292 36.1133 8.08855 36.0314 8.07839C35.9291 8.26129 35.8677 8.46453 35.7552 8.64743C35.7347 8.64743 35.704 8.64743 35.6836 8.64743C35.3664 8.59662 35.1516 8.23081 35.6631 7.92597C35.6495 7.85822 35.6699 7.75661 35.7245 7.62112C35.479 7.64144 35.3767 8.00726 35.08 7.84467C35.0902 8.0479 34.9777 8.00726 34.6503 7.90564C34.6401 7.92597 34.6094 7.93613 34.5992 7.94629C34.7628 7.9158 34.8447 8.0479 34.8345 8.15968C34.5753 8.30194 34.4321 8.38323 34.4048 8.40356C34.4048 8.40356 34.3025 8.38323 34.2616 8.36291C34.1593 8.63727 33.5966 8.76937 33.8421 9.15551C33.8319 9.18599 33.791 9.22664 33.7603 9.24696C33.7603 9.25712 33.7603 9.28761 33.7705 9.30793C33.9444 9.32825 34.016 9.47051 34.1286 9.5518C34.1081 9.5518 34.0876 9.57213 34.0672 9.58229C34.0263 9.57213 33.9649 9.55181 33.924 9.54164C33.8933 9.57213 33.8523 9.61277 33.8114 9.6331C33.7705 9.62294 33.7193 9.58229 33.6784 9.56197C33.484 9.92778 33.0135 9.74487 32.7065 9.89729C32.7065 9.91762 32.7065 9.9481 32.7065 9.96843C32.9725 9.88713 33.1055 9.90746 33.1669 9.90746C33.1669 9.90746 32.8191 10.1615 32.5633 10.0294C32.5224 10.0497 32.4815 10.0904 32.461 10.131C32.5531 10.2326 32.7679 10.4867 32.3792 10.8017C32.1405 10.7339 32.0757 10.5917 32.1848 10.3749C31.7142 10.4359 32.0825 10.8525 32.1746 10.9134C32.2666 10.9744 32.461 11.1167 32.1132 11.6857C32.0927 11.6756 32.0723 11.6552 32.0518 11.6451C32.0518 11.6248 32.0518 11.6248 32.1541 11.4317C31.8165 11.0964 31.6528 10.9439 31.837 10.6492C31.7824 10.6357 31.6971 10.5917 31.5812 10.5171C31.663 10.6289 31.663 10.6492 31.6221 10.7407C31.5812 10.7509 31.5403 10.7813 31.5198 10.8118C31.6937 11.1776 31.6937 11.2285 31.6937 11.2996C31.5301 11.2454 31.4243 11.2217 31.3766 11.2285L31.4277 11.2488C31.6869 11.4317 31.8165 11.5367 31.8165 11.5638C31.7142 11.5333 31.6324 11.4723 31.5301 11.4317C31.6426 11.5028 31.7347 11.5841 31.8574 11.6451C31.8472 11.6857 31.8063 11.7264 31.7756 11.7568C31.8165 11.7772 31.8574 11.828 31.8779 11.8788C31.7142 11.8178 31.6153 11.7907 31.5812 11.7975C31.7756 11.8178 31.929 11.9499 32.1234 11.9702C32.1234 11.9906 32.1439 12.0109 32.1541 12.021C32.1541 12.0414 32.1234 12.0719 32.1132 12.0922C32.1609 12.1938 32.1814 12.2615 32.1746 12.2954C31.9904 12.3564 31.8915 12.3869 31.8779 12.3869C31.8779 12.3869 32.1643 12.4682 32.328 12.4275C32.3383 12.4275 32.3689 12.458 32.3894 12.4682C32.3894 12.4682 32.3382 12.8645 32.0211 12.6815C31.9256 12.7154 31.854 12.7256 31.8063 12.712C31.9495 12.7798 32.0245 12.817 32.0313 12.8238C32.0006 12.8949 31.9904 12.9153 31.8472 12.9254C31.9188 12.9457 31.9188 12.9457 32.103 12.9559C32.103 12.9762 32.1234 13.0067 32.1336 13.0169C31.4175 13.4233 31.4073 13.4233 31.3868 13.5351C31.2129 13.6062 30.9981 13.5859 30.8548 13.718C30.8446 13.7282 30.8344 13.7383 30.8242 13.7587C29.7602 15.0085 29.75 15.0289 29.7397 15.2118C29.7397 15.2524 29.7397 15.2626 29.7397 15.293C29.9239 16.1263 30.7014 16.736 30.8548 17.62C30.8548 17.62 30.9265 18.4431 30.3433 18.4939C29.1975 17.0916 29.1975 17.1018 29.1873 17.0408C29.1566 17.0408 29.1157 17.0205 29.0952 17.0103C29.0134 16.7766 29.3408 16.5937 29.1771 16.3498C29.0748 16.1974 28.4609 15.7097 28.2052 15.6589C28.021 15.7097 27.8983 15.9129 27.663 15.9027C27.3254 15.8824 27.1924 15.4963 26.8343 15.4963C26.5274 15.4963 26.2205 15.6284 25.9136 15.4963C25.6578 15.6792 25.3611 15.5572 25.0952 15.5979C25.0133 15.6995 24.9826 15.7503 24.8189 15.7198C24.778 15.669 24.7166 15.6081 24.6552 15.5674C24.5939 15.5979 24.5223 15.6385 24.4711 15.6792V15.7097C24.6552 15.8113 24.8701 15.8113 25.0645 15.8926C24.9724 16.0755 24.6246 16.1771 24.0414 16.2279C24.0107 16.2076 23.7652 15.984 23.5094 15.9637C23.4481 16.0348 23.2742 16.2584 22.7933 15.8926C22.0772 16.0247 21.535 16.5531 20.87 16.7766H20.8189C20.3414 17.1695 20.1027 17.366 20.1027 17.366C19.9902 17.8537 20.4506 18.311 20.1539 18.8293C20.0925 18.941 19.8674 20.4957 19.8674 20.5059" fill="white"/>
<path d="M28.42 8.04789C28.2768 8.04789 28.154 7.97676 28.0211 7.94627C27.8574 7.92595 27.6835 7.91579 27.5198 7.89547C27.2026 7.85482 27.1924 7.86498 27.1515 7.89547C27.1003 7.93611 27.0594 7.93611 27.0185 7.91579C26.9059 7.8345 26.9059 7.8345 26.3842 7.91579C26.3024 7.92595 26.3126 8.00724 26.241 8.02757C26.2307 8.0174 26.2205 7.98692 26.2001 7.97676C25.9238 7.93611 25.6067 8.48483 25.6067 8.52548C25.6067 8.52548 25.7431 8.42386 26.0159 8.22063C26.0977 8.1495 26.1182 8.1495 26.1387 8.1495C26.0364 8.35273 25.842 8.51532 25.7806 8.72871C25.7192 8.92517 25.7056 9.18259 25.7397 9.50098C25.7704 9.74486 26.0364 9.94809 26.333 9.68389C26.6502 9.40953 26.4251 9.0742 26.3535 8.96242C26.2614 8.82016 26.4149 8.43403 26.4149 8.42386H26.4456C26.4456 8.42386 26.599 8.26128 26.6911 8.2308C26.6911 8.2308 26.7423 8.25112 26.7729 8.25112C26.8139 8.19692 26.8753 8.1495 26.9571 8.10886C26.9571 8.10886 26.8855 8.06821 26.9059 8.0174C26.9571 7.88531 27.6528 8.00724 27.7755 8.21047C27.7755 8.2308 27.7448 8.25112 27.7346 8.27144C27.8267 8.39338 27.8778 8.45435 27.7448 8.58645C27.6153 8.72871 27.5573 8.81 27.5709 8.83032C27.6937 8.99291 27.8062 8.62709 28.0006 8.65758C28.0415 8.65758 28.1745 8.72871 28.2257 8.9421C28.2461 9.01323 28.2564 9.0742 28.3075 9.08436C28.3791 9.10468 28.5428 9.01323 28.5837 8.95226C28.6451 8.84049 28.5223 8.74903 28.5428 8.64742C28.553 8.5458 28.686 8.50516 28.7065 8.40354C28.7269 8.25112 28.5326 8.24096 28.4712 8.12918C28.6246 7.9666 28.7576 8.30193 28.9316 8.33241C29.0441 8.34257 29.1566 8.44419 29.2896 8.39338C29.2896 8.39338 29.2896 8.39338 29.1771 8.30193V8.2816C29.2896 8.2816 29.2896 8.2816 29.2998 8.2816C29.2385 8.16983 28.8599 7.85482 28.8293 7.84466C28.7167 7.81417 28.6144 7.84466 28.5019 7.84466C28.3587 7.82434 28.2257 7.76337 28.0722 7.77353C27.8881 7.77353 27.7039 7.7024 27.5095 7.74304C27.5095 7.77353 27.6221 7.85482 27.7858 7.85482C28.3689 7.8345 28.42 7.8345 28.4814 7.94627C28.4814 7.9666 28.4303 8.03773 28.3791 8.03773" fill="white"/>
<path d="M28.0517 9.54165C28.0517 9.54165 27.9597 9.66359 27.9392 9.72456C28.2359 9.83634 28.8088 10.0396 29.9034 9.24697C29.9239 9.23681 29.9444 9.21649 29.9546 9.20632C29.9546 9.186 29.9546 9.15552 29.9546 9.13519C29.9341 9.13519 29.9034 9.14535 29.8932 9.15552H29.8114C29.5658 9.15552 29.3885 9.19955 29.2794 9.28762C28.819 9.16568 28.5428 9.75504 28.062 9.53149" fill="white"/>
<path d="M288.926 19.3577C288.547 19.0528 288.036 18.7988 287.381 18.5854C286.726 18.372 285.969 18.2297 285.1 18.1586C283.944 18.0671 282.593 18.1078 281.048 18.1078H247.421C246.695 18.1078 245.856 18.6463 245.539 19.3068L236.996 37.8922H255.36C256.086 37.8922 256.925 37.3638 257.232 36.6932L258.695 33.5126H246.122L247.697 30.0984H260.271L262.245 25.8102H249.672L250.756 23.4527C251.063 22.7922 251.902 22.2537 252.628 22.2537H267.585L260.403 37.8922H266.767C267.493 37.8922 268.332 37.3638 268.639 36.6932L275.248 22.2537H278.153C278.153 22.2537 280.271 22.2638 280.813 22.4264C281.345 22.589 281.672 22.8126 281.826 23.1276C281.969 23.4426 281.959 23.7982 281.785 24.2148C281.58 24.7128 281.202 25.1802 280.649 25.6273C280.097 26.0642 279.422 26.3996 278.614 26.613C277.816 26.8264 276.966 26.928 276.087 26.928C275.463 26.928 274.839 26.8772 274.235 26.7857L274.317 37.8821H281.243C281.969 37.8821 282.491 37.3029 282.399 36.5814L281.437 29.1533C282.798 28.7774 283.882 28.4014 284.701 28.0356C285.519 27.6799 286.256 27.243 286.89 26.7451C287.534 26.2471 288.087 25.7188 288.527 25.1497C288.956 24.5807 289.314 23.971 289.591 23.3206C289.836 22.7414 289.969 22.2029 289.99 21.6948C290.01 21.1867 289.939 20.7498 289.754 20.3636C289.581 19.9877 289.294 19.6422 288.916 19.3475M236.597 18.0976C235.861 18.0976 235.022 18.6362 234.715 19.2967L229.753 30.0882L226.418 18.0976H218.07C217.344 18.0976 216.505 18.6362 216.198 19.2967L207.656 37.8821H213.436C214.173 37.8821 215.011 37.3537 215.308 36.683L220.311 25.7899L224.208 37.8719H231.953C232.679 37.8719 233.518 37.3435 233.825 36.6728L242.367 18.0875H236.587L236.597 18.0976ZM206.612 18.0976C205.876 18.0976 205.037 18.6362 204.73 19.2967L196.188 37.8821H202.96C203.697 37.8821 204.536 37.3537 204.832 36.683L213.375 18.0976H206.602H206.612ZM191.267 18.0976H152.31C151.573 18.0976 150.734 18.6362 150.427 19.2967L145.527 29.9561L142.13 18.1078H133.782C133.056 18.1078 132.207 18.6362 131.91 19.2967L123.368 37.8821H129.158C129.885 37.8821 130.723 37.3537 131.03 36.683L136.043 25.7899L139.931 37.8719H147.675C148.412 37.8719 149.251 37.3435 149.547 36.6728L155.634 23.4324C155.941 22.7719 156.78 22.2334 157.507 22.2334H165.394L158.212 37.8719H164.003C164.729 37.8719 165.568 37.3435 165.875 36.6728L171.962 23.4324C172.269 22.7719 173.108 22.2334 173.834 22.2334H182.254L175.072 37.8719H192.945C193.671 37.8719 194.52 37.3435 194.817 36.6728L196.28 33.4923H184.198L191.287 18.0773L191.267 18.0976ZM118.212 24.855C118.038 23.971 117.516 23.3003 116.677 22.8227C115.828 22.3451 114.754 22.1013 113.444 22.1013C112.063 22.1013 110.703 22.3756 109.352 22.9142C108.002 23.4629 106.836 24.2148 105.833 25.1904C104.82 26.1659 104.094 27.2023 103.633 28.3201C103.204 29.3464 103.091 30.2813 103.286 31.1247C103.48 31.9681 104.032 32.6387 104.943 33.1163C105.864 33.5939 106.948 33.8378 108.196 33.8378C109.526 33.8378 110.856 33.5736 112.196 33.035C113.526 32.4965 114.692 31.7445 115.675 30.7792C116.667 29.8037 117.383 28.7977 117.823 27.7307C118.253 26.7044 118.386 25.7391 118.201 24.8753M125.67 27.6189C124.984 29.2346 124.012 30.7284 122.713 32.09C121.424 33.4516 119.889 34.5999 118.13 35.5449C116.36 36.4899 114.447 37.1809 112.37 37.628C110.283 38.0751 108.217 38.2885 106.16 38.2885C104.104 38.2885 102.273 38.0751 100.585 37.6382C98.907 37.2114 97.5771 36.5204 96.6052 35.5551C95.6333 34.5897 95.1013 33.5228 95.0195 32.344C94.9274 31.1653 95.1934 29.8545 95.7868 28.4217C96.6666 26.3081 98.0477 24.4486 99.9301 22.8532C101.812 21.2579 104.145 20.008 106.928 19.1036C109.7 18.2094 112.585 17.7623 115.593 17.7623C117.516 17.7623 119.276 17.9757 120.882 18.3822C122.488 18.7988 123.767 19.4694 124.718 20.384C125.67 21.2985 126.232 22.3451 126.396 23.534C126.56 24.7229 126.324 26.0947 125.68 27.6393M96.5131 23.3714C96.2369 24.0218 95.8788 24.6315 95.4492 25.2005C95.0093 25.7696 94.467 26.298 93.8123 26.7959C93.1678 27.2938 92.4312 27.7206 91.6128 28.0864C90.7944 28.4522 89.6997 28.818 88.3493 29.2041L89.311 36.6322C89.403 37.3537 88.8915 37.9329 88.1549 37.9329H81.229L81.1471 26.8365C81.7609 26.928 82.3748 26.9788 82.9988 26.9788C83.8786 26.9788 84.7175 26.8772 85.5257 26.6638C86.3237 26.4504 87.0091 26.1252 87.5616 25.6781C88.114 25.231 88.4925 24.7636 88.6971 24.2657C88.871 23.849 88.8813 23.4832 88.738 23.1784C88.5948 22.8634 88.2572 22.6297 87.7252 22.4772C87.1933 22.3248 86.3135 22.3045 85.0654 22.3045H82.1804L75.5409 36.744C75.2442 37.4045 74.3951 37.943 73.6687 37.943H67.3054C67.3054 37.943 74.4258 22.4467 74.4872 22.3045H62.2926C61.5662 22.3045 60.7273 22.8329 60.4102 23.4934L59.3155 25.8509H66.0983L64.1238 30.139H57.3615L54.3334 36.7338C54.0264 37.3943 53.1875 37.9329 52.4612 37.9329H45.6785L54.497 19.3475C54.8142 18.687 55.6531 18.1586 56.3897 18.1586H87.9503C89.4849 18.1586 90.8353 18.118 92.0015 18.2094C92.8813 18.2805 93.6384 18.4228 94.2931 18.6362C94.9376 18.8496 95.4594 19.1036 95.8379 19.4085C96.2164 19.7031 96.4927 20.0486 96.6768 20.4246C96.861 20.8006 96.9326 21.2477 96.9121 21.7558C96.8814 22.2638 96.7484 22.8126 96.5131 23.3816" fill="white"/>
</g>
<defs>
<clipPath id="clip0_1_18">
<rect width="290" height="56" fill="white"/>
</clipPath>
</defs>
</svg>
