<svg width="22" height="22" viewBox="0 0 22 22" fill="none" xmlns="http://www.w3.org/2000/svg">
<path d="M6.646 6.41666H15.3543V4.58333C15.3543 2.74999 14.6668 1.83333 12.6043 1.83333H9.396C7.3335 1.83333 6.646 2.74999 6.646 4.58333V6.41666ZM14.6668 13.75V17.4167C14.6668 19.25 13.7502 20.1667 11.9168 20.1667H10.0835C8.25016 20.1667 7.3335 19.25 7.3335 17.4167V13.75H14.6668Z" stroke="white" stroke-width="2" stroke-miterlimit="10" stroke-linecap="round" stroke-linejoin="round"/>
<path d="M15.5833 13.75H6.41667M6.41667 10.0833H9.16667M19.25 9.16667V13.75C19.25 15.5833 18.3333 16.5 16.5 16.5H14.6667V13.75H7.33333V16.5H5.5C3.66667 16.5 2.75 15.5833 2.75 13.75V9.16667C2.75 7.33334 3.66667 6.41667 5.5 6.41667H16.5C18.3333 6.41667 19.25 7.33334 19.25 9.16667Z" stroke="white" stroke-width="2" stroke-miterlimit="10" stroke-linecap="round" stroke-linejoin="round"/>
</svg>
